<?xml version="1.0" encoding="UTF-8"?>
<svg width="52.409mm" height="27.349mm" clip-rule="evenodd" fill-rule="evenodd" image-rendering="optimizeQuality" shape-rendering="geometricPrecision" text-rendering="geometricPrecision" version="1.0" viewBox="0 0 4945 2581" xmlns="http://www.w3.org/2000/svg" xmlns:xlink="http://www.w3.org/1999/xlink">
 <defs>
  <style type="text/css">.str0 {stroke:black;stroke-width:18.8719} .fil2 {fill:none} .fil0 {fill:black} .fil1 {fill:white} .fil4 {fill:url(#a)} .fil3 {fill:url(#b)}</style>
  <radialGradient id="a" cy="37.002%" r="45%">
   <stop stop-color="#FFBE00" offset="0"/>
   <stop stop-color="#ff0" offset=".3098"/>
   <stop stop-color="#f60" offset="1"/>
  </radialGradient>
  <radialGradient id="b" cy="36.999%" r="45%" xlink:href="#a"></radialGradient>
 </defs>
 <rect class="fil0" width="4945" height="2581"/>
 <path class="fil1" d="m1155 1006c40 145 49 210 112 363-155-122-168-199-112-363z"/>
 <path class="fil2" d="m1155 1006c0 129-17 87 23 221 14 46 54 105 89 142"/>
 <path class="fil3 str0" d="m1156 1005c-12 24-12 77 0 138s36 130 78 193c42 64 102 122 165 162s130 61 199 71c69 11 141 11 216-8 75-18 153-55 204-116s75-146 78-196-15-66-60-85c-45-18-117-39-204-69-87-29-189-66-294-84-106-19-214-19-280-21-66-3-90-8-102 15z"/>
 <ellipse class="fil0" cx="1594" cy="1169" rx="262" ry="222"/>
 <ellipse class="fil1" transform="matrix(.87425 .42798 -.48548 .77072 1424.5 1074.4)" rx="14" ry="38"/>
 <path class="fil1" d="m3636 1015c-40 145-49 210-112 363 154-122 168-199 112-363z"/>
 <path class="fil2" d="m3636 1015c0 129 17 87-23 221-14 46-54 105-89 142"/>
 <path class="fil4 str0" d="m3635 1014c12 24 12 77 0 138s-36 130-78 193c-42 64-102 122-166 162-63 40-129 61-198 71-69 11-141 11-216-8-75-18-153-55-204-116s-75-146-78-196 15-66 60-85c45-18 117-39 204-69 87-29 189-66 294-84 105-19 214-19 280-22 66-2 90-7 102 16z"/>
 <ellipse class="fil0" cx="3197" cy="1178" rx="262" ry="222"/>
 <ellipse class="fil1" transform="matrix(-.87425 .42798 .48548 .77072 3366.4 1083.4)" rx="14" ry="38"/>
</svg>
