<?xml version="1.0" encoding="UTF-8"?>
<!DOCTYPE svg  PUBLIC '-//W3C//DTD SVG 1.1//EN'  'http://www.w3.org/Graphics/SVG/1.1/DTD/svg11.dtd'>
<svg enable-background="new 0 0 2135 1658" version="1.1" viewBox="0 0 2135 1658" xml:space="preserve" xmlns="http://www.w3.org/2000/svg">
<style type="text/css">
	.st0{fill:#000001;}
</style>
<path class="st0" d="m1918 516.64c6.336-8.444 19.426-23.865 21.34-31.31-1.17-0.48-2.31-0.95-3.43-1.42-9.818 6.536-16.064 16.476-32.32 15.48 1.3-3.45 3-6.73 4.93-9.87 2-3.13 1.08-7.1 2.67-10.4 2.43-5.12 3.25-10.84 6.07-15.8 1.99-3.57 3.05-7.58 2.78-11.68-1.25 0.45-2.83 0.3-3.6 1.51-4.99 6.14-10 12.44-16.63 16.9-6.56-2.38-13.35-5.64-20.48-4.89-2.75 4.35-4.88 9.16-8.55 12.87-1.55-0.01-3.07-0.01-4.56 0.01-0.75-1.13-1.48-2.24-2.18-3.36 1.34-1.96 2.73-3.89 4.21-5.76 1.14 0.05 2.31 0.1 3.5 0.15 1.5-2.11 3.81-4.26 3.21-7.14-2.716-20.679-11.261-19.528-15.69-26.39-4.196-6.257-25.178-24.794-52.35-34.55-4.32-1.75-7.84-5.08-12.33-6.45-39.452-11.311-33.6-19.48-118.08-31.04-8.543-1.516-75.541-4.14-97.05 4.88-22.474 7.721-119.37 22.081-201.42 103.65-11.07 11.87-24.46 21.4-34.87 33.93-11.022 12.22 1.185 0.224-26.91 30.37-1.542 1.917-24.374 23.856-28.72 30.99-6.45-1.18-11.23-6.23-16.66-9.56 1.22-2.34 2.14-5.12 4.56-6.51 5.17-1.09 11.64 1.55 15.64-3.05 4.8-5.07 2.81-12.54 0.06-18.1 0.45-2 0.78-4.03 1.09-6.05-1.5-0.04-2.98-0.07-4.44-0.1-0.3 0.19-0.89 0.58-1.19 0.78-20.825-9.583-24.271 2.196-23.6 6.26 1.24 7.548-5.984 14.1-7.76 16.04-0.451-0.299-86.878-59.52-87.29-59.87 1.18-2 2.45-3.94 3.84-5.81 0.538-10.993 9.599-36.211-31.9-37.4-7.01-0.45-13.56-3.27-19.76-6.37-7.142-22.025-11.534-37.903-22.18-57.58-3.48-5.78-3.2-12.86-6.13-18.85-3.533-6.152-34.869-38.029-71.55-52.46-3.85-1.62-8.12-2.77-11.03-5.95-6.55-7.118-11.286-5.72-18.2-8.71-0.26-2.45 0.67-5.69-1.85-7.22-3.741-3.145-8.877-2.529-13.268-3.897-0.239-1.46-0.28-1.714-0.519-3.174 8.364-5.843 13.282-2.104 16.107-7.189 2.92-4.57 6.27-9.77 12.01-10.92 1.53-1.36 3.05-2.72 4.59-4.08 0.66-7.48-5.79-12.63-7.35-19.56 4.31-0.97 9.17-0.73 12.42-4.27-0.561-5.859-11.478-19.992-13.52-29.3 14.884-6.959 38.172-8.134 41.21-37.36 0-6.773-8.136-23.252-17.47-29.41-17.279-11.591-22.418-10.712-24.76-16.25-5.376-11.006-8.622-15.133-28.48-26.64-13.986-9.833-16.255-8.348-37.2-14.81-6.82-2.1-13.98-2.65-21.06-3.13-5.16-0.41-7.23-6.02-11.3-8.46-2.35 2.46-3.48 5.92-6.12 8.08-3.45 0.92-7.11 0.83-10.56 1.76-4.59 0.74-8.91 2.71-13.57 2.98-0.45 0.46-1.35 1.37-1.8 1.82h-3.13c-0.46 0.49-1.37 1.46-1.82 1.95-0.51 0.06-1.54 0.18-2.05 0.24-1.69 1.24-3.41 2.44-5.1 3.67-0.42 0.1-1.27 0.31-1.69 0.41-6.582 6.371-31.259 17.61-34.95 56.78-1.704 2.062-30.254 28.207-16.61 61.71 0.9 0.79 1.81 1.58 2.73 2.37 0.04 0.54 0.13 1.63 0.17 2.17 5.26 4.96 10.98 11.28 18.9 10.79 11.459 1.038 15.56-6.499 24.08-16.13 5.44 0.2 9.11 4.9 11.67 9.19 1.73 3.15 4.85 5.01 7.7 7.02-2.12 1.64-4.59 2.89-6.39 4.89-2.34 3.33-4.01 7.34-7.71 9.44-0.32 0.39-0.96 1.16-1.28 1.55h-2.82c-2.12-2.35-3.67-5.23-6.16-7.2-2.722-1.949-5.744 2.567-15.64 3.35-3.58 3.57-8.29 5.97-11.26 10.13-1.32 3.7-0.44 7.79-0.21 11.62 17.178 0.515 15.744-1.99 22.08-4.98 5.16 0.42 8.04 5.11 11.87 7.91 2.1 1.69 5.38 1.5 7.15 3.51-5.08 3.78-9.44 8.4-14.46 12.27-3.14 2.38-5.31 5.71-7.51 8.92-0.07 0.45-0.2 1.36-0.26 1.82-0.41 0.32-1.22 0.96-1.63 1.28-0.72 3.86-0.25 7.84 0.46 11.67 0.79 2.89-1.56 5.24-2.59 7.73-2.48 3.99-2.63 8.93-1.81 13.43 1.67 2.12 3.65 3.98 5.27 6.15-2.84 0.2-5.67 0.68-8.21 2.01-3.832-1.092-4.855-0.286-8 0.42-2.21 2.22-4.32 4.54-6.35 6.92-2.83 3.61-7.68 5.1-9.78 9.36 0.05 6.78-8.62 7.63-10.01 13.78-2.127 16.875 4.661 19.872 5.06 26.64-4.097 4.336-71.29 54.398-72.29 55.21-0.73 0.02-2.19 0.05-2.92 0.07-3.68 4.58-9.12 7.17-14.03 10.19-3.679 10.035 6.254 15.946 8.62 17.87 3.56-0.11 6.78-1.69 9.13-4.35 2.86-3.18 7.55-4.31 9.71-8.13 3.11-4.95 8.62-7.53 12.88-11.33 51.622-37.692 44.26-35.36 51.4-36.69 2.548 11.484 1.026 6.523-6.58 19.87-0.12 0.47-0.35 1.42-0.47 1.9-1.91 3.25-1.88 7.04-1.8 10.69 5.45 1.12 10.25-2.71 15.69-2.22 10.198 21.413 17.835 31.417 42.42 41.93 2.51 0.98 4.81-0.71 6.8-2.04 4.84-3.53 10.78-4.97 15.92-7.98 30.706-8.378 27.029-2.271 37.555-17.843 0.7-0.095 1.06-0.144 1.759-0.239 42.004 35.436 35.577 32.28 32.705 42.792-1.04-0.23-2.07-0.46-3.09-0.68-2.92-3.9-6.31-7.49-8.62-11.8-2.745-4.824-5.27-9.888-17.6-5.65-7.274 20.783-10.235 17.95-3.06 33.88-14.634-5.49-19.534-22.024-60.82-7.95-10.494 7.938-19.61 0.677-34.61 9.7-3.98 2.42-8.56 3.56-12.64 5.77-0.48 0.1-1.45 0.3-1.93 0.41-0.45 0.37-1.35 1.12-1.8 1.49-18.061 7.101-39.94 31.929-49.66 41.34-2.3 6.44-0.94 13.95 2.06 20.02 1.13 2.11 0.97 4.56 1.17 6.88-7.794 2.735-10.845-1.694-24.35 6.89-4.38 3.26-7.96 7.45-12.25 10.83-3.15 1.9-7.62 3.72-7.79 7.98-0.94 1.53-1.96 3.01-3.02 4.47-6.27 0-12.54-0.32-18.79 0.08-25.598 6.965-38.707-3.388-62.61 36.21-9.682 19.331-3.573 23.972-4.28 35.43-3.08 2.83-7.12 4.06-10.75 5.98-0.48 0.08-1.44 0.25-1.92 0.34-0.45 0.39-1.34 1.18-1.79 1.57-3.721 0.88-3.711 1.534-7.06 2.6-3.52 2.37-7.33 4.26-11.17 6.05-6.741 3.081-9.782 8.023-24.51 4.96 0.02-1.36 0.04-2.71 0.07-4.05 3.05-1.79 6.51-2.53 10.04-2.24 8.652 0.439 25.453-6.56 13.61-28.61-3.31-5.72-10.56-7.05-16.58-7.72-7.78-0.72-15.65-3.01-23.43-1.12-6.45 0.8-12.14 4.2-18.41 5.64-10.849-12.238-20.657-7.886-27.36-7.01-0.35 0.38-1.05 1.14-1.41 1.52-1.312 0.408-14.95 7.633-15.95 8.16-0.5 0.06-1.5 0.19-2 0.25-5.37 3.33-9.21 9.39-8.54 15.86-1.418 18.82 12.715 24.854 14.99 26.56 0.74 2.15-2.52 2.4-3.93 2.73-31.491 3.962-24.714 6.641-38.81 9.16-5.43 1.62-8.61 6.59-12.77 10.01-7.74 4.31-15.22 9.2-21.9 15.04-27.631 22.611-75.674 59.886-69.16 157.59 0.941 10.062-2.504 44.058-2.52 45.06-0.64 3.97-0.31 9.11-4.19 11.53-3.97 2.18-8.36 3.53-12.09 6.16-0.49 0.1-1.45 0.31-1.94 0.41-6.3 3.76-13.53 5.63-19.64 9.73-34.242 19.129-32.307 25.379-43.59 26.24-0.45 0.44-1.35 1.32-1.79 1.76-0.49 0.05-1.46 0.15-1.95 0.2-12.392 8.341-12.692 12.156-22.06 22.41-2.73 3-7.2 1.93-10.65 3.4-3.73 1.56-7.32 3.5-10.59 5.88-0.98 0.07-1.95 0.15-2.92 0.24-0.46 0.47-1.36 1.42-1.81 1.9-0.56 0.02-1.66 0.06-2.22 0.07-0.44 0.47-1.31 1.39-1.75 1.85-0.49 0.1-1.49 0.29-1.99 0.39-5.781 3.083-37.569 1.855-42.27 1.41-4.1-1.1-8.26-2.03-12.53-1.78-0.73 5.83 2.81 10.75 7.29 14.04 0.58 0.05 1.73 0.16 2.31 0.22 12.994 7.989 19.538 3.139 29.56 5.5 3.69 0.92 7.34-0.46 11.01-0.7 5.483-1.387 1.73 8.813-0.83 12.3-2.73 2.14-6.34 2.57-9.68 2.91-12.555 8.24-6.019 11.851-16.43 18.15-2.27 3.77 0.22 7.38 1.35 11.02-1.37 0.79-2.73 1.63-4.06 2.49-0.5 0.05-1.49 0.14-1.99 0.19-0.39 0.48-1.16 1.43-1.55 1.9-0.53 0.06-1.58 0.17-2.1 0.22-1.054 0.879-23.994 19.751-38.29 29.62-19.542 3.908-21.688-1.919-42.38-3.77-4.02 0.26-8.8 0.32-11.67 3.59-2.99 0.39-5.4 2.26-6.98 4.76-2.5 3.8-6.6 6.6-7.93 11.11-0.8 2.23 0.64 4.33 1.37 6.38-0.88 2.59-0.94 5.35-0.88 8.08 1.19 0.01 2.38 0.04 3.57 0.08 3.27-3.37 6.62-6.66 9.8-10.12 14.914 2.684 2.437-6.106 30.26 0.84 32.346 5.673 22.216 7.693 61.43-5.79 0.98 0.46 1.96 0.94 2.94 1.42-0.69 6.99 1.9 13.62 2.79 20.44-1.38 2.74-3.92 4.79-5.26 7.61-3.66 5.55-2.17 12.33-2.98 18.57-0.315 24.833-9.919 27.861-15.18 37.4-1.65 3.44-5.96 5.4-6.23 9.47 1.09 2.16 2.48 4.16 3.67 6.29 15.305-2.487 31.067-16.455 35.33-41.02 7.315-4.367 19.476-6.679 36.07-35 7.563-11.987 6.716-20.174 11.11-22.76 1.003-0.612 22.409-9.536 27.6-13.55 4.274-2.894 7.606-8.756 15.74-7.77 0.94 0.8 1.15 2.09 1.66 3.19-19.64 22.418-23.258 12.831-26.29 28.73-3.071 14.452 4.574 29.76-24.51 40.54-4.26 1.56-8.52 3.38-13.09 3.73-0.46 0.43-1.36 1.3-1.81 1.73-0.55 0.03-1.64 0.1-2.19 0.13-9.01 9.188-10.414 10.547-10.353 22.469 1.205 0.29 1.029 0.248 2.234 0.538 1.638-3.149 2.985-6.794 6.479-8.337 1.08 0.84 2.16 1.69 3.25 2.57 0 1.21 0.01 2.45 0.02 3.69 0.61-0.02 1.83-0.06 2.43-0.07 3.12-3.71 7.81-5.15 12.15-6.84 19.402 9.676 18.818-6.143 39.91-12.42 3.07-2.36 6.6-4.18 9.23-7.06 3.59-4.64 6.53-10.55 4.89-16.55-1.19-3.8 1.32-7.3 1.64-11.03 2.54-1.53 5.32-2.6 8.18-3.33 29.449-11.245 21.197-16.203 36.87-49.33 3.458-7.11 2.765-5.438 11.03-10.12 5.13-2.81 9.45-7.08 15.09-8.94 18.947-5.937 44.362-5.266 67.31-30.53 7.5-8.56 16.51-15.65 23.91-24.31 20.027-23.565 16.947-18.589 21.89-19.72-1.22 3.29-2.73 6.53-2.79 10.12 4.03-0.8 8.34-3.05 12.33-0.91 4.48 0.24 8.65-1.6 12.7-3.25 8.356-3.581 2.588-9.798 9.93-16.97 6.023-5.771 6.7-1.38 21.01-16 3.538-3.528 17.615-22.699 13.46-44.76 0.66-4.44 2.2-8.71 2.88-13.14 1.92-0.83 4.08-1.22 5.89 0.12 4.07 2.61 9.38 1.77 13.33 4.63 10.13 10.627 27.042 88.212 48.35 117.99 0.906 3.618 10.462 28.612 4.97 44.79-4.417 16.088-17.163 44.419-26.95 56.17-2.83 1.56-4.65 4.26-6.11 7.07-8.362 15.319-29.153 30.241-30.35 31.57-8.881 9.027-7.226 10.835-7.19 28.94 5.77 11.57 12.25 22.88 15.62 35.46 0.357 1.364 17.594 47.138 18.48 48.38 18.379 25.934 37.27 69.478 38.17 74.69 0.41 0.32 1.23 0.94 1.64 1.26 0.05 0.61 0.15 1.84 0.2 2.45 2.912 5.271 9.762 24.13 10.14 27.22 0.37 0.45 1.11 1.35 1.48 1.81 2.718 12.121 4.053 10.021 10.66 40.36 1.726 7.332 18.042 25.258 18.96 26.26 1.69-0.04 3.39-0.06 5.1-0.07 17.543-16.875 26.079 0.704 33.51 8.59 0 0.95 0 1.93 0.01 2.93-3.514 3.138-5.513 7.507-8.657 10.951 0 4.364 3.538 7.902 7.902 7.902h76.931c3.958 0 7.167-3.208 7.167-7.167 0 0-1.589-12.053-2.093-11.937-4.374-6.636-2.027-11.56-14.78-18.07-5.833-1.241-14.541-2.09-20.7-7.91-7.21-6.82-15.91-12.02-22.35-19.63-4.7-7.01-6.09-15.81-11.66-22.32-5.15-8.359-13.796-7.701-27.35-36.66-8.508-15.917-22.224-52.1-22.62-54.16-2.639-4.788-11.231-30.24-7.9-46.47 0.904-15.859-1.464-10.808 1.94-31.88 0.95-7.713-3.024-22.12 12.45-42.88 38.7-38.948 20.454-11.603 61.49-51.53 4.19-4.09 6.67-9.93 11.93-12.83 0.35 1.27 1.19 2.31 2.04 3.33 0.76 3.92 2.5 7.61 2.45 11.68 0.17 0.43 0.52 1.27 0.69 1.69 2.104 64.667-18.79 55.657-11.72 88.87 5.304 7.268 5.554 10.532 18.34 17.4 3.416 0.557 29.71 9.047 31 9.31 3.619 1.917 3.08 1.474 7.01 3.72l2.04 0.2c0.97 0.59 1.94 1.2 2.93 1.82 0.49 0.05 1.47 0.17 1.96 0.22 1.43 1.3 3.25 1.87 5.15 2.06 1 0.53 2 1.08 3 1.66 4.649 0.792 9.972 5.635 31.13 6.4 0.721 0.172 23.996 7.046 24.87 7.59 6.824 0.641 2.16 1.352 10.02 2.3 0.8 0.58 1.62 1.18 2.44 1.79 0.6 0.06 1.8 0.17 2.4 0.23 2.6 1.45 5.62 1.93 8.16 3.53 4.323 0.83 32.882 14.514 35.93 16.17 0.5 0.06 1.48 0.2 1.98 0.27 22.177 10.384 26.414 21.305 37.01 29.76 6.001 0.749 9.62 6.917 16.07 7.27 2.71-2.29 3.93-7.05 8.01-7.17 1.86 1.84 3.03 4.22 4.31 6.48 0.07 0.48 0.22 1.44 0.29 1.92 0.88 1.07 0.87 2.15-0.02 3.22-0.06 0.5-0.17 1.49-0.23 1.98-1.43 1.38-2.85 2.77-4.31 4.12-8.996 2.859-9.125 4.541-12.55 10.82-0.4 4.56 0 9.15 1.11 13.6 1.147 4.19 0.843 8.606 0.774 12.901-0.081 5.005-6.682 6.564-6.87 11.456-0.069 1.784 0.772 3.579 2.186 4.668 2.513 1.936 5.827 1.377 8.762 1.801 3.037 0.439 5.687 1.861 8.543 2.901 1.954 0.711 3.74 1.886 5.489 2.988 7.105 4.478 14.117 9.012 21.497 13.043 0.51 0.03 1.52 0.1 2.03 0.14 0.45 0.48 1.35 1.46 1.8 1.94 0.5 0.04 1.5 0.1 2 0.14 2.077 1.204 4.109 2.471 6.005 3.916 3.377 2.574 7.502 3.974 11.748 3.974h20.87c5.818 0 10.219-5.279 9.142-10.997-1.612-8.561-3.238-20.198-3.296-31.063-0.9-7.22 3.15-14.54-0.15-21.52-4.531-7.573-21.413-20.065-29.47-41.92-25.082-75.068-15.147-54.649-102.75-90.82-8.194-3.425-38.09-11.884-65.98-32.13-15.949-11.904-27.527-46.911-20.78-64.61 1.653-18.384 10.309-35.658 12.56-42.45 13.035-29.125 5.196-53.879 16.99-64.44 11.923-0.585-0.315-5.347 22.11-18.83 1.06-0.33 2.11-0.69 3.16-1.08 8.231-0.036 7.297-1.923 27.9 4.11 4.68 2.48 9.62 4.48 14.07 7.39 4.47 1.05 8.33 3.89 12.9 4.63 1.52 1 3.21 1.66 5 2.06 4.22 1.63 8.36 3.92 13.01 3.85 2.18 1.28 4.65 1.83 7.06 2.52 5.31 1.76 10.78 3.04 16.02 5.01 3.72 0.83 7.26 2.31 11.1 2.65 8.16 2.82 16.87 3.25 25.2 5.38 9.1-0.01 17.98 2.72 27.1 2.27 16.02-0.03 32.06 0.01 48.09-0.02 18.48-2.26 37.11-3.85 55.45-7.28 3.26-1.19 6.77-1.41 10.09-2.41 5.91-1.53 12.15-1.59 17.88-3.86 13.85-3.98 28.24-6.12 42.62-6.65 4.02-1.01 8.24-0.45 12.26-1.48 2.97-0.73 6.07-0.37 9.1-0.16 7.523 2.259 14.481 1.018 21.4 4.12 0.4 1.77 0.87 3.54 1.3 5.33 0.68 1.08 1.27 2.29 2.22 3.23 9.76 0.91 19.45-1.37 29.22-0.84 0.99-0.72 1.99-1.44 2.99-2.16 2.75 0.48 5.17 2.01 7.94 2.46 56.438 17.492 60.94 13.049 83.16 13.75 8.762 11.145 11.741 22.965 15.09 27.5 1.378 7.926 17.504 37.601 18.11 38.96 0.07 0.48 0.23 1.46 0.3 1.94 1.64 2.21 2.99 4.61 4.12 7.13 4.808 10.2 41.76 55.82 39.75 84.42 0.36 3.82-1.34 8.55 1.86 11.55 0.06 0.47 0.2 1.41 0.27 1.88 15.783 21.732 24.731 38.331 26.32 41.16 4.979 8.526 4.686 3.946 15.38 23.92 1.178 6.283 4.456 9.922 5.28 14.97 3.59 6.439 22.947 58.975 21.84 77.52 0.52 7.5 1.11 15.75 6.71 21.44 3.18 6.48 6.02 13.98 12.85 17.47 0.48 0.06 1.43 0.18 1.91 0.24 2.63 2.14 6.13 1.95 9.29 2.6 1.2-2.24 2.36-4.49 3.56-6.71 8.932-1.373 18.538 11.001 21.2 16.58 1.19 2.14-0.13 4.7-1.98 5.99-3.24 2.32-4.67 6.18-6.73 9.44-0.377-0.013-0.739-0.028-1.113-0.042v16.005h166.81c-0.228-0.471-0.438-0.937-0.676-1.41 1.88-1.33 4.23-2.15 5.75-3.95 7.67-14.41-3.199-10.327-25.38-36.71-22.594-22.594-12.727-29.647-30.05-31.67-17.779-2.029-47.175-24.914-53.32-51.73-4.447-13.948-20.932-25.332-34.05-51.38-0.612-1.014-22.035-44.245-24.74-51.3-3.15-8.32-7.83-16.61-7.03-25.8 1.006-14.522-4.257-16.525-7.28-31-8.403-44.221-17.139-42.356-21.29-55.54-0.308-1-25.87-56.307-32.51-129.89 20.781-24.733 22.185-47.751 31.63-62.04 11.518-18.248 18.693-42.343 14.34-64.39 1.66-0.34 3.49-0.34 5.05-1.14 1.49-1.49 2.75-3.19 4.2-4.72 2.77-0.61 4.87-2.54 6.72-4.58 0.27-1.97 0.62-3.91 1.06-5.83-0.85-2.29-1.95-4.49-3.75-6.17-2.11-1.88-2.53-5.1-5.15-6.44 0.75-8.17 0.12-16.31-0.02-24.49 1.34 0.2 2.72 0.42 4.1 0.65 2.66 2.87 5.93 5.7 10.16 5.25-1.14-2.73-3.48-4.55-6.31-5.25 0.77-2.15 1.39-4.36 1.62-6.64 2.75-6.96 1.55-14.88-0.79-21.79 0.59-0.32 1.77-0.95 2.36-1.27 0.936-12.042 1.433-8.994 5.97-9.99-0.14-1.55-0.26-3.07-0.36-4.59-1.16-0.13-2.29-0.25-3.41-0.36-0.87-1.77-3.28-3.46-2.04-5.56 2.18-0.7 4.49-0.23 6.74-0.03-0.4 1.49-0.77 2.98-1.14 4.48 2.96 2.2 6.3 4.11 10.14 4 3.84-4.19 8.73-7.36 11.71-12.36-0.88 3.63-1.82 7.27-2.24 11 6.76-3.373 3.999-13.38 9.66-37.38 1.49 0 3.01 0.02 4.55 0.05 3.27-4.21 5.62-9.12 9.52-12.82 9.622-10.211 7.296-3.325 19.02-18.08 1.38-0.21 2.91-0.01 4.26-0.61 0.85-1.81 0.36-4 0.65-5.93 1.24 0.48 2.95 0.41 3.77 1.7 1.03 2.74-0.51 5.54-1.09 8.22-14.914 29.978-14.037 17.31-27.41 33.98-1.55 2.77 1.27 6.01-0.14 8.82-1.24 2.49-1.4 5.27-1.51 8 7.977 10.054 15.405 6.472 18.81 12.09 8.624 15.633 18.352 24.872 32.58 13.89 4.76-3.65 6.36-11.16 13.11-11.99 6.63-0.63 13.76 0.3 19.82-3.16 6.921-2.964 54.01-56.994 62.71-70.25 21.192-33.349 34.39-21.776 106.66-151.62 31.937-7.969 15.103-7.5 33.01-10.42 10.898-5.043 25.329-9.644 22.3-50.94-2.654-18.051-10.034-23.837-15.749-29.27zm-1380.7 267.51c-1.48-1.52-2.89-3.13-3.77-5.06 16.333-1.252 10.633 5.198 3.77 5.06zm363.49-161.56c-12.249 23.8-12.541 12.66-15.89 30.03-0.81 1.56-1.68 3.08-2.75 4.47-4.67 0.06-9.98-1.21-13.79 2.24-0.77 1.31-1.51 2.72-2.84 3.56-4.49 0.93-8.88-1.15-13.37-1.06-0.06-0.63-0.18-1.88-0.25-2.51 32.638-23.039 32.938-24.803 48.85-40.57 2.02-2.09 3.92-4.4 6.6-5.69-1.58 3.58-4.71 6.12-6.56 9.53zm334.77-31.99c-6.749-2.097-21.106 2.403-24.09 4.11-6.1 1.54-11.87 5.21-18.27 5-9.88-4.33-22-2.64-30.55-10.07 2.48-3.83 1.91-8.69 4.49-12.41-0.98-2.72-4.42-5.19-6.75-2.32-1.99 0.07-3.98 0.1-5.95 0.14-0.98 0.63-1.95 1.28-2.91 1.93-1.04-0.01-2.06-0.01-3.06 0-4.32-4.28-9.52-7.48-14.27-11.22-1.46-4.28-2.97-8.54-4.6-12.75 0.74 0 2.23-0.01 2.97-0.01 4.99-3.6 9.52-7.8 14.54-11.38 0.18-2.75-0.88-5.21-1.91-7.67-0.5-4.33-0.1-8.73-0.33-13.08 0.294 0.169 94.342 63.169 100.36 67.85-2.82 1.91-6.33 2.99-9.67 1.88zm15.41-18.44c-137.36-85.55-100.6-53.03-92.6-72.88 0.56-0.25 1.68-0.74 2.23-0.99 7.416 4.81 88.374 64.372 90.28 66.1 1 2.4 1.67 5.44 0.09 7.77zm87.81 530.03c-7.101-0.624-28.451-4.875-34.3-9.96 6.96-3.214 32.269 2.795 33.28 2.92 0.82 2.29 3.42 4.81 1.02 7.04zm20.18 2.8c2.21-3.83 0.02-8.01-0.14-12.03 3.21-0.16 6.45-0.09 9.68 0.1 1.02 0.77 2.07 1.54 3.14 2.31 1.03 2.31 2.52 4.37 4.35 6.14 0.02 1.14 0.05 2.29 0.09 3.45-5.71 0.15-11.42 0.53-17.12 0.03zm266.04 357.41c-0.02 0.75-0.07 2.25-0.09 3-2.7-0.87-4.3-3.33-5.44-5.75 1.82 0.83 3.69 1.83 5.53 2.75zm-99.16-436.42c-0.6 0.79-1.18 1.6-1.76 2.41-0.05 0.53-0.15 1.58-0.2 2.1-2.07 1.51-3.07 3.9-4.23 6.08-2.58 2.32-4.34 5.45-6.09 8.41-1.13-0.01-2.23 0.01-3.31 0.03-0.89-3.11-1.52-6.3-1.28-9.53 2.75-2.75 5.08-5.92 8.15-8.33 4.27-3.32 6.74-8.32 10.94-11.71 0.88 3.89-2.29 6.78-2.22 10.54zm41.03-165.95c-2.15 0.04-1.86-3.17-2.76-4.57-0.14-3.09-0.23-6.17-0.23-9.24 0.53 0.45 1.61 1.37 2.15 1.82 0.19 3.97 1.55 8.14 0.84 11.99zm1.26 11.86c-0.13-0.73-0.39-2.17-0.52-2.9 0.27-2.26 2.45-1.32 3.36-0.12 1.25 1.3 1.33 3.18 1.74 4.87-1.57-0.63-3.06-1.23-4.58-1.85zm6.92-5.9c-2.58-0.29-5.23-0.59-7.34-2.19 0.28-1.32 0.18-2.98 1.58-3.7 1.93-0.16 3.88-0.05 5.85-0.03 0.15 1.97 0.04 3.93-0.09 5.92zm-5.84-16.09c1.67-0.2 3.36-0.4 5.06-0.6 0.32 2.27 0.63 4.54 0.93 6.83-2 0.08-4 0.16-5.96 0.26-0.03-2.18-0.03-4.34-0.03-6.49zm6.28-5.75c-0.43 0.5-1.3 1.49-1.74 1.98-2.03-0.16-4.02-0.36-6-0.68 1.17-2.72 2.48-5.49 2.13-8.53 2.05-0.32 4.12-0.66 6.2-1.02-0.28 2.74-0.53 5.49-0.59 8.25zm-4.48-13.15c0.82-0.01 2.47-0.03 3.29-0.04-0.1 0.79-0.3 2.39-0.4 3.18-0.82 0.04-2.46 0.11-3.28 0.15 0.1-0.82 0.29-2.47 0.39-3.29zm-0.17-4.12c0.18-1.82-0.16-3.86 1.19-5.32 2.2 0.85 2.1 3.59 3.05 5.44-1.35 1.03-2.86 0.32-4.24-0.12zm22.71 4.93c-1.92-0.51-3.82-1.09-5.67-1.7 1.61-2.08 4.03 0.01 5.99 0.29-0.08 0.35-0.24 1.06-0.32 1.41zm49.93-181.39c-1.71 6.22-1.273 11.468-7.16 30.08-4.748 10.634-4.319 21.14-7.01 30.09-5.475 24.128-14.174 18.885-18.76 19.47-4.968 2.804-9.379 3.335-13.36 13.43-0.77 2.73-1.76 5.59-0.73 8.41 1.47 4.9-0.12 9.85-0.62 14.74-1.53 0.26-1.95 1.5-2.15 2.84-3.918 7.697-2.37 19.683 14.1 29.62 0.061 2.042-0.373 16.05-3.41 18.96-3.38 3.31-5.11 8.07-9.27 10.62-1.37-0.37-2.28-1.22-2.73-2.57-2.58 0.28-5.49 0.22-5.96-2.94-2.86-2.18-6.5-1.49-9.8-1.28-3.188-4.198-12.121-19.176-11.67-23.36 0.695-1.116 20.007-37.889 21.21-44.95 7.497-14.289 23.384-68.366 33.15-93.08 2.745-6.417 1.654-8.589 16.76-17.62 2-1.34 4.55-0.75 6.84-0.95 1.34 2.64 1.36 5.67 0.57 8.49z"/>
</svg>
