<?xml version="1.0" encoding="utf-8"?>
<!-- Generator: Adobe Illustrator 24.0.3, SVG Export Plug-In . SVG Version: 6.00 Build 0)  -->
<svg version="1.1" id="Layer_1" xmlns="http://www.w3.org/2000/svg" xmlns:xlink="http://www.w3.org/1999/xlink" x="0px" y="0px"
	 viewBox="0 0 198.43 198.43" style="enable-background:new 0 0 198.43 198.43;" xml:space="preserve">
<style type="text/css">
	.st0{fill:#737373;}
	.st1{fill:#5A5959;}
	.st2{fill:#921442;}
	.st3{fill:#FFFFFF;}
	.st4{fill:#584430;}
	.st5{fill:#714A37;}
	.st6{fill:#4A2010;}
	.st7{fill:#D90652;}
	.st8{fill:#FDD9AB;}
	.st9{fill:#E79470;}
	.st10{fill:#020203;}
	.st11{fill:#B81543;}
	.st12{fill:#E8388C;}
	.st13{fill:#C2C1C1;}
	.st14{fill:#532D18;}
	.st15{fill:#A27F5D;}
	.st16{fill:#6D1041;}
	.st17{fill:#46301A;}
</style>
<g>
	<path class="st0" d="M192.98,143.77l-4.23,2.57c-2.11,1.29-4.75,2.55-7.83,3.73c-10.19,3.9-25.11,6.81-40.94,6.48
		c-20.6-0.43-32.53-3.33-42.03-5.86c-9.49-2.54-27.93-5.92-44.28-5.6c-9.44,0.18-21.43,2.4-29.89,4.24
		c-5.96,1.29-10.16,2.4-10.46,2.48c13.33-6.44,35.65-14.86,48.46-14.22c12.81,0.64,65.14,10.69,90.34,12.53
		C176.61,151.89,192.12,144.2,192.98,143.77z"/>
	<path class="st1" d="M180.93,150.06c-10.19,3.9-25.11,6.81-40.94,6.48c-20.6-0.43-32.53-3.33-42.03-5.86
		c-9.49-2.54-27.93-5.92-44.28-5.6c-9.44,0.18-21.43,2.4-29.89,4.24c12.68-5.2,28.16-10.05,38-9.57
		c12.81,0.64,65.14,10.69,90.34,12.53C164.08,153.15,173.91,151.76,180.93,150.06z"/>
	<g>
		<path class="st2" d="M117.55,104.9c-0.01,0-0.03-0.01-0.04-0.01c-8.26-1.14-16.64-0.98-23.6-0.14c-1.26,0.15-2.48,0.33-3.64,0.52
			c0.7-0.4,1.4-0.8,2.1-1.18c1.91-1.05,3.85-2.01,5.87-2.63c2.01-0.66,4.14-0.84,6.21-0.76c2.09,0.15,4.18,0.68,6.23,1.38
			c0.92,0.32,1.84,0.67,2.76,1.03c1.11,0.45,2.22,0.94,3.33,1.43c0.25,0.11,0.49,0.23,0.74,0.34
			C117.53,104.89,117.54,104.89,117.55,104.9z"/>
		<path class="st3" d="M139.96,92.64c0.93-1.85,1.47-3.94,1.47-6.15c0-7.6-6.18-13.78-13.78-13.78c-7.6,0-13.78,6.18-13.78,13.78
			c0,1.38,0.21,2.72,0.59,3.98C121.85,92.01,131.76,93.48,139.96,92.64z"/>
		<path class="st4" d="M144.48,91.87c-0.25,0.06-0.49,0.12-0.74,0.17c-0.45,0.1-0.91,0.19-1.38,0.27c0.72-1.81,1.12-3.77,1.12-5.83
			c0-2.91-0.79-5.64-2.16-7.98c-2.75-4.69-7.85-7.85-13.67-7.85c-0.74,0-1.47,0.05-2.17,0.16c-0.09,0.01-0.18,0.02-0.27,0.03
			c-7.57,1.17-13.4,7.74-13.4,15.64c0,1.2,0.14,2.37,0.4,3.49c-0.29-0.07-0.58-0.13-0.86-0.19c0.1-0.33,0.17-0.66,0.17-1
			c0-1.07-0.51-2.05-1.4-2.86c-0.03-3.01-0.13-17.96,1.28-23.24c0.16-0.59,0.29-0.94,0.38-1.14c0.25,0.21,0.58,0.54,0.87,0.83
			c1.29,1.29,3.28,3.29,6.49,4.03c0.79,0.18,1.66,0.29,2.61,0.29c5.57,0,16.72,4.64,21.49,11.92
			C145.95,82.76,146.36,87.22,144.48,91.87z"/>
		<path class="st5" d="M66.05,53.03c-0.32,0.25-0.64,0.5-0.95,0.76c-0.66,0.53-1.31,1.11-1.97,1.71c-2.64,2.45-5.14,5.4-7.32,8.96
			c-0.47,0.4-5.28,4.51-12.93,11.33c-1.55,1.38-2.74,1.74-3.52,1.06c-1.74-1.51-2.14-7.31-0.64-13.03c0.37-1.38,0.85-2.77,1.45-4.08
			c0.45-0.99,0.96-1.93,1.55-2.81C46.33,50.01,60.59,51.98,66.05,53.03z"/>
		<path class="st5" d="M166.69,71.89c-0.12,2.37-0.66,4.21-1.53,4.97c-0.78,0.68-1.97,0.32-3.52-1.06
			c-8.02-7.16-12.94-11.33-12.99-11.38l-0.03,0.04c-2.12-3.64-4.79-6.83-8.01-9.56c-0.58-0.49-1.18-0.97-1.79-1.42
			c-0.18-0.14-0.36-0.28-0.54-0.41c4.93-0.97,17.73-2.83,23.32,2.45c0.45,0.42,0.86,0.9,1.21,1.42
			C165.78,61.4,166.93,67.53,166.69,71.89z"/>
		<path class="st5" d="M155.48,100.95c-0.9,4.05-3.96,8.66-7.56,11.76c-1.95,1.68-4.38,3.25-7.17,4.68
			c-0.09-0.59-0.19-1.18-0.31-1.75c-0.1-0.46-0.21-0.91-0.32-1.35c-0.09-0.36-0.18-0.71-0.29-1.04c-0.32-1.05-0.69-2.03-1.12-2.92
			c0.29-0.08,0.59-0.14,0.89-0.21c0.57-0.11,1.11-0.32,1.67-0.48c0.56-0.15,1.1-0.36,1.63-0.61c2.08-1.03,3.99-2.38,5.64-3.95
			c0.2-0.19,0.4-0.39,0.59-0.6c1.38-1.44,2.58-3.05,3.4-4.84c-2.63,3.6-6.38,6.19-10.42,7.49c-0.5,0.17-0.99,0.38-1.49,0.54
			c-0.5,0.17-1.01,0.35-1.53,0.45c-0.48,0.1-0.97,0.25-1.45,0.32c-0.03,0.01-0.07,0.02-0.1,0.02c-0.5,0.1-1.01,0.14-1.53,0.16
			c-0.14,0.01-0.28,0.01-0.42,0.01c-0.21,0-0.41,0-0.62-0.01h-0.05c-1.4-0.05-2.81-0.3-4.22-0.66c-0.31-0.08-0.62-0.16-0.92-0.25
			c-0.51-0.15-1.02-0.32-1.53-0.49c-3.59-1.23-7.08-2.97-10.65-4.55c-2.03-0.91-4.11-1.79-6.26-2.53c-2.16-0.73-4.4-1.31-6.75-1.48
			c-0.05-0.01-0.1-0.01-0.16-0.01v-4.91c0.55-0.05,1.06-0.3,1.42-0.73c0.38-0.43,0.56-1.01,0.52-1.6c-0.01-0.02-0.01-0.03-0.01-0.05
			c0.18,0,0.64,0.08,1.42,0.47c0.75,0.38,1.66,0.27,2.33-0.22c0.34,0.08,0.68,0.16,1.03,0.24c0.56,0.13,1.14,0.26,1.75,0.39
			c0.8,0.17,1.64,0.35,2.49,0.52c0.97,0.19,1.96,0.38,2.99,0.56c0.62,0.11,1.22,0.21,1.82,0.31c7.09,1.15,13.25,1.55,18.39,1.19
			c0.92-0.06,1.81-0.16,2.67-0.27c1.51-0.2,2.94-0.47,4.25-0.82c4.84-1.3,8.24-0.62,9.57,1.9
			C155.86,97.12,155.93,98.97,155.48,100.95z"/>
		<path class="st6" d="M109.47,88.79c0,0.17-0.04,0.35-0.12,0.52c-0.03,0.09-0.08,0.17-0.13,0.25c-0.08,0.13-0.18,0.26-0.3,0.39
			c-0.05,0.05-0.14,0.08-0.21,0.04c-0.64-0.32-2.57-1.27-3.73-0.16c-0.12,0.12-0.23,0.25-0.32,0.38c-0.1,0.14-0.16,0.29-0.22,0.45
			c-0.1,0.28-0.13,0.58-0.1,0.91c0,0.05-0.02,0.08-0.07,0.12c-0.5,0.03-0.98,0.05-1.56-0.02c-0.01-0.01-0.03-0.05-0.03-0.1
			c0.03-0.4-0.03-0.77-0.18-1.1c-0.03-0.07-0.07-0.14-0.11-0.21c-0.1-0.15-0.21-0.3-0.34-0.44c-0.4-0.38-0.9-0.52-1.4-0.52
			c-0.17,0-0.34,0.02-0.5,0.05c-0.77,0.12-1.49,0.47-1.83,0.64c-0.07,0.03-0.16,0.01-0.21-0.04c-0.09-0.1-0.17-0.19-0.24-0.29
			c-0.21-0.29-0.31-0.58-0.31-0.88c0-1.39,2.45-2.93,5.96-2.93S109.47,87.4,109.47,88.79z"/>
		<path class="st5" d="M67.43,146.34c-0.09,1.97-0.68,3.86-1.76,5.34c-0.55,0.76-1.2,1.4-1.95,1.93c-0.01,0-0.01,0.01-0.01,0.01
			c-1.79,1.26-4.15,1.86-6.94,1.73c-2.16-0.09-3.64-0.79-4.52-2.13c-1.26-1.9-1.12-4.74-0.73-6.97c0.14-0.79,0.32-1.51,0.47-2.08
			c0.02-0.07,0.04-0.14,0.05-0.2c0.21-0.71,0.37-1.15,0.38-1.17l0.03-0.13c0.34-1.45,2.13-2.81,4.46-3.55
			c0.91-0.29,1.91-0.49,2.92-0.56c0.19-0.01,0.45-0.03,0.74-0.03c1.74,0,5.03,0.4,6.12,3.27c0.06,0.16,0.12,0.32,0.16,0.48
			c0.22,0.65,0.37,1.32,0.47,2C67.43,144.97,67.46,145.66,67.43,146.34z"/>
		<path class="st7" d="M137.69,128.13c-1.28,2.6-3.43,3.79-6.38,3.55c-2.1-0.17-3.82-1.29-5.23-2.94c-0.81-0.94-1.51-2.05-2.12-3.25
			c-0.27-0.54-0.53-1.1-0.77-1.67c-0.03-0.07-0.07-0.14-0.1-0.21c-0.45-1.1-0.84-2.24-1.17-3.36c-0.03-0.08-0.05-0.16-0.07-0.23
			c-0.17-0.57-0.32-1.13-0.46-1.68c-1.07-4.27-1.7-9.73-1.9-12.23c2.95,0.5,6,2.3,8.75,3.27c0.12,0.04,0.23,0.08,0.34,0.12
			l0.01-0.01c0.16,0.05,0.32,0.11,0.49,0.16c0.07,0.23,0.16,0.54,0.27,0.92c0.79,2.94,2.43,10.06,3.35,14.11
			c0.02,0.05,0.03,0.1,0.04,0.15c0.27,1.23,0.49,2.16,0.58,2.56c0.01,0.06,0.02,0.11,0.03,0.14l0.01,0.04
			c0,0.01,0.01,0.03,0.01,0.04c0.14-1.57,0.16-3.12,0.12-4.62c0-0.1,0-0.2-0.01-0.29c-0.02-0.71-0.06-1.42-0.12-2.11
			c-0.34-4.05-1.16-7.68-1.93-10.35c1.52,0.32,3.08,0.5,4.68,0.45c0.16-0.01,0.32-0.03,0.48-0.03l0.01,0.01
			c0.23,0.4,0.42,0.85,0.62,1.31c0.77,1.84,1.34,4.07,1.6,6.36c0.09,0.72,0.15,1.44,0.18,2.16
			C139.09,123.31,138.71,126.06,137.69,128.13z"/>
		<path class="st5" d="M158.1,156.47c0,0.05-0.01,0.09-0.01,0.13c-0.36,2.96-1.92,6.04-4.05,7.66c-1.05,0.79-2.23,1.23-3.46,1.12
			c-0.07-0.01-0.14-0.01-0.21-0.02c-5.25-0.49-9.08-3.1-10.55-5.48c-0.27-0.44-0.54-0.99-0.68-1.6c-0.07-0.29-0.11-0.59-0.11-0.9
			c0-0.42,0.06-0.85,0.23-1.29l0.07-0.24c0-0.01,0.03-0.2,0.1-0.51c0.25-1.09,1.07-3.73,3.33-5.57c0.1-0.09,0.21-0.18,0.33-0.26
			c1.62-1.21,3.66-1.81,6.07-1.81c0.87,0,1.79,0.08,2.75,0.23c4.77,0.77,5.99,4.06,6.21,6.48
			C158.2,155.24,158.15,155.98,158.1,156.47z"/>
		<path class="st8" d="M163.16,111.95c3.32-14.09-10.27-26.75-10.41-26.87l-0.29-0.27l-0.03-0.4c-0.64-7.51-2.8-15.62-8.01-22.51
			c-0.71-0.94-1.47-1.85-2.3-2.74c-5.13-5.52-12.6-9.99-23.34-12.26c-0.6-0.13-1.2-0.25-1.81-0.36c-0.4-0.59-0.97-1.4-1.72-2.34
			c-3.15-3.94-9.31-10.07-17.79-11.02v3.26l-1.14-0.12c-0.09-0.01-8.05-0.81-14.94,1.01c-0.33,0.08-0.66,0.18-0.98,0.27l5.7,1.68
			l-1.32,1.23c-0.04,0.04-2.23,2.12-3.86,4.98c-0.45,0.79-0.86,1.65-1.16,2.53c-0.73,2.12-0.89,4.44,0.3,6.6l10.9-5.47l-0.18,1.86
			c-0.01,0.02-0.14,3.34,5.27,7.76c1.12-2.23,3.58-6.29,7-5.47c-1.95,0.5-4.52,4.86-5.68,7.48l-0.52,1.18l-1.03-0.77
			c-0.16-0.12-0.31-0.23-0.45-0.35c-4.51-3.5-5.97-6.58-6.44-8.38l-2.16,1.08l-7.42,3.72l-0.51-0.72c-0.01-0.01-0.01-0.02-0.02-0.03
			c-1.58-2.22-2.06-4.79-1.47-7.58C62.87,54.8,53.94,66.53,50.85,83.9l-0.04,0.24l-0.15,0.2c-0.15,0.2-14.68,19.73-5.99,35.96
			c4.31,8.07,17.25,13.06,29.29,16.06c12.33,3.08,23.74,4.04,23.96,4.06c-2.07,0.64-13.81,0.23-26.17-2.71
			c-0.01-0.01-0.01-0.01-0.01,0c-3.71-0.88-7.49-2-11.07-3.38c-3.74-1.44-7.27-3.17-10.31-5.25l0.47,0.63
			c-0.1,0.08-1.01,0.78-1.88,2.24c-1.35,2.24-2.62,6.25-0.8,12.46c0.56-0.04,1.12-0.08,1.68-0.12c0.27-1.1,0.55-1.9,0.64-2.14
			c0.82-3.34,5.25-5.37,9.23-5.64c4.38-0.3,7.73,1.4,8.92,4.57c0.42,1.09,0.68,2.22,0.8,3.34c2.12,0.16,4.23,0.38,6.34,0.66
			c4.16,0.51,8.28,1.3,12.36,2.29c2.05,0.5,4.05,1.02,6.05,1.55c2.01,0.5,4.01,1,6.03,1.45c0.36,0.08,0.72,0.16,1.08,0.24
			c3.67,0.82,7.37,1.53,11.08,2.16c1.92,0.33,3.84,0.62,5.77,0.88c2.17,0.31,4.34,0.57,6.52,0.79c3.21,0.34,6.42,0.58,9.64,0.73
			c-0.72-1.81-1.52-4.85-1.18-8.98c0.01-0.01,0.01-0.03,0.01-0.05c0.04-0.45,0.09-0.92,0.16-1.4v-0.05c0-0.02,0.01-0.03,0.01-0.05
			c0.1-0.71,0.23-1.45,0.4-2.21c0.26,7.24,2.11,11.24,2.89,12.83l0.74,0.02c0.2-1.07,1.12-4.9,4.51-7.42
			c0.56-0.42,1.16-0.78,1.8-1.08c2.38-1.13,5.26-1.43,8.6-0.89c2.32,0.38,4.04,1.27,5.29,2.46c1.94-11.23-2.08-18.9-2.88-20.3
			c-3.17,2.58-7.02,4.92-11.54,6.88l-0.01,0.01c-5.86,2.54-12.83,4.47-20.92,5.52c5.9-1.69,11.18-3.53,15.83-5.52
			C152.59,128.69,161.02,121,163.16,111.95z M131.14,133.73c-2.74-0.22-4.93-1.62-6.68-3.71c-0.99-1.17-1.84-2.55-2.57-4.06
			c-7.55,1.65-15.68,2.58-23.56,2.58c-2.38,0-4.74-0.08-7.05-0.26c-15.42-1.16-31.7-8.83-38.69-18.22
			c-3.1-4.17-4.27-8.52-3.38-12.59c0.8-3.65,2.28-5.89,4.4-6.65c1.84-0.66,4.01-0.16,6.48,1.45c-0.01-0.78-0.08-1.8-0.14-2.7
			c-0.36-5.07-0.91-12.73,3.82-18.53c3.75-4.6,10.18-4.7,15.87-4.78c4.78-0.08,9.3-0.14,11.3-2.8c0-0.01,0.01-0.01,0.01-0.01
			c1.81-2.42,3.47-2.18,4.3-1.82c1.75,0.75,3.04,3.53,3.75,7.42c0.78,4.26,0.86,9.85,0.07,15.57c1.26-0.51,2.79-0.82,4.44-0.82
			c1.7,0,3.26,0.32,4.54,0.86c-0.03-4.01,0-13.58,0.81-19.53c0.15-1.15,0.34-2.16,0.55-2.97c0.39-1.47,0.85-2.5,1.82-2.75
			c1.06-0.29,1.86,0.51,2.86,1.53c1.1,1.1,2.61,2.62,4.92,3.32c0.81,0.25,1.71,0.4,2.73,0.4c6.18,0,18,4.89,23.21,12.84
			c2.81,4.28,3.45,9.03,1.9,13.84c6.49-1.18,9.07,1.51,10.03,3.34c2.65,5.01-0.7,13.62-7.63,19.58c-2.23,1.92-5.04,3.69-8.29,5.29
			c0.03,0.54,0.05,1.09,0.06,1.63c0.02,2.89-0.43,5.68-1.51,7.86c-1.53,3.1-4.12,4.73-7.49,4.73
			C131.75,133.77,131.45,133.75,131.14,133.73z"/>
		<path class="st9" d="M137.33,155.28c0,0-2.77-6.61-2.2-11.24c0,0,1.27,6.14,3.89,8.38l-1.34,2.86"/>
		<path class="st9" d="M74.26,143.8c4.48,0.75,17.07,2.89,27.03,6.81c-0.36-0.08-0.72-0.16-1.08-0.24
			c-2.02-0.45-4.03-0.95-6.03-1.45c-1.99-0.53-4-1.05-6.05-1.55c-4.08-0.99-8.2-1.77-12.36-2.29c-2.11-0.28-4.23-0.5-6.34-0.66
			c-0.12-1.12-0.38-2.25-0.8-3.34c-1.19-3.16-4.53-4.87-8.92-4.57c-3.99,0.27-8.42,2.3-9.23,5.64c-0.08,0.24-0.36,1.03-0.64,2.14
			c-0.56,0.03-1.12,0.08-1.68,0.12c-3.01-10.27,2.43-14.51,2.68-14.7l-0.47-0.63c5.95,4.06,13.78,6.82,21.38,8.63
			c-1.66-0.06-2.83,0.14-2.67,0.83C69.55,140.61,69.55,143,74.26,143.8z"/>
		<path class="st5" d="M121.06,124.07c-3.75,0.8-7.66,1.42-11.6,1.83c-0.05,0.01-0.1,0.01-0.16,0.01
			c-5.99,0.62-12.07,0.76-17.87,0.32c-14.88-1.12-30.53-8.44-37.2-17.4c-2.6-3.49-3.65-6.92-3.14-10.25
			c0.03-0.23,0.08-0.45,0.12-0.68c0.27-1.27,0.64-2.33,1.06-3.14c0.55-1.05,1.23-1.73,2.02-2.01c0.32-0.11,0.64-0.16,0.98-0.16
			c1.64,0,3.51,1.18,4.9,2.27c3.42,2.69,7.59,4.09,11.77,3.95h0.32c1.64-0.08,3.23-0.23,4.79-0.42c3.37-0.41,6.53-1.05,9.42-1.8
			c1.72-0.45,3.34-0.93,4.85-1.42c3.1-1.03,5.74-2.12,7.79-3.05c0,0,0-0.01,0.01-0.01c0.54-0.25,1.03-0.48,1.49-0.7
			c-0.04,0.58,0.14,1.16,0.52,1.59c0.32,0.38,0.75,0.61,1.23,0.7v4.95c-1.61,0.08-3.21,0.34-4.74,0.84
			c-0.86,0.27-1.7,0.58-2.51,0.92c-1.3,0.56-2.55,1.21-3.75,1.88c-3.92,2.18-7.62,4.58-11.78,5.51c-4.11,1.01-8.53,0.69-12.45-0.88
			c-3.51-1.15-6.77-3.25-9.44-6.01c-0.01-0.01-0.03-0.02-0.03-0.03c-0.01-0.01-0.01-0.01-0.02-0.02c-0.38-0.4-0.76-0.82-1.12-1.25
			c2.18,3.9,5.64,7.18,9.84,9.22c1.53,0.6,3.11,1.02,4.73,1.28c0.15,0.08,1.43,0.61,3.82,0.61c1.86,0,4.39-0.33,7.58-1.47
			c7.12-2.55,21.55-4.16,35.08-2.27c0.12,1.79,0.4,4.7,0.99,7.94c0.38,2.14,0.91,4.44,1.62,6.67c0.15,0.49,0.32,0.98,0.49,1.46
			C120.81,123.41,120.93,123.74,121.06,124.07z"/>
		<path class="st3" d="M79.37,71.05c-7.6,0-13.78,6.18-13.78,13.78c0,5.09,2.78,9.53,6.89,11.92c6.66-0.36,12.74-1.78,17.68-3.38
			c1.86-2.35,2.98-5.31,2.98-8.53C93.15,77.24,86.97,71.05,79.37,71.05z"/>
		<path class="st4" d="M96.75,86.07c-0.79,0.77-1.26,1.71-1.26,2.72c0,0.8,0.31,1.58,0.87,2.27c-0.92,0.39-1.93,0.79-3.02,1.2
			c1.18-2.22,1.86-4.75,1.86-7.43c0-6.79-4.3-12.6-10.31-14.85c-0.01-0.01-0.01-0.01-0.02-0.01c-0.03-0.01-0.05-0.01-0.07-0.02
			C83.11,69.33,81.28,69,79.37,69c-1.08,0-2.12,0.11-3.14,0.32h-0.01C69,70.77,63.54,77.18,63.54,84.83c0,4.62,1.99,8.79,5.17,11.69
			c-2.37-0.42-4.64-1.4-6.67-2.86c0.19-0.97,0.1-2.33-0.04-4.24c-0.03-0.49-0.07-1-0.1-1.53c-0.29-4.66-0.32-10.91,3.47-15.56
			c3.14-3.86,8.82-3.94,14.31-4.02c5.1-0.08,9.92-0.15,12.6-3.24c0.12-0.12,0.22-0.25,0.32-0.39c0.42-0.55,1.21-1.45,1.84-1.17
			C96.76,64.52,98.73,74.41,96.75,86.07z"/>
		<path class="st10" d="M160.17,154.12c-0.12-1.23-0.44-2.44-0.99-3.54c3.19-14.27-2.69-23.5-2.95-23.89l-0.05,0.03
			c4.78-4.32,7.79-9.26,8.98-14.3c1.49-6.34,0.05-13.35-4.17-20.27c-2.67-4.38-5.62-7.41-6.56-8.31c-0.5-5.44-1.68-10.37-3.52-14.76
			c2.23,1.94,5.41,4.73,9.35,8.25c1.63,1.46,2.97,1.93,4.02,1.93c1.01,0,1.75-0.44,2.22-0.84c3.79-3.29,2.72-15.55-1.99-22.61
			c-6.32-9.5-26.49-4.84-28.58-4.33c-0.02-0.01-0.04-0.03-0.06-0.04c-5-3.11-10.9-5.35-17.65-6.7
			c-2.76-3.96-10.29-13.03-21.74-13.69l-1.09-0.06v3.21c-3.15-0.21-12.13-0.47-18.65,2.62l-2.44,1.15l7.85,2.31
			c-0.89,1-2.11,2.52-3.14,4.36c-0.34,0.6-0.62,1.2-0.87,1.79c-3.14,1.15-6.52,2.76-9.84,4.99c-3.17-0.75-22.2-4.79-28.31,4.39
			c-4.7,7.06-5.78,19.32-1.99,22.61c0.47,0.41,1.21,0.84,2.22,0.84c1.05,0,2.39-0.47,4.02-1.93c3.67-3.28,6.68-5.92,8.87-7.83
			c-1.82,3.96-3.29,8.53-4.25,13.79c-0.75,1.03-4.04,5.73-6.45,12.21c-3.58,9.63-3.43,18.53,0.44,25.76
			c1.42,2.66,3.66,4.99,6.44,7.05c-1.31,1.15-6.04,6.13-3.23,16.26c-6.79,0.58-13.53,1.58-20.2,2.96c-4.06,1-8.07,2.16-12.04,3.45
			c-1.98,0.65-3.95,1.33-5.9,2.06c-1.95,0.74-3.88,1.52-5.78,2.37c7.91-2.57,15.99-4.48,24.14-5.85c6.74-1.42,13.56-2.41,20.41-2.98
			c0.56-0.05,1.12-0.09,1.68-0.13c0.35-0.03,0.69-0.05,1.04-0.07c-0.39,2.53-0.42,5.68,1.11,7.98c1.26,1.9,3.33,2.93,6.15,3.05
			c0.26,0.01,0.51,0.02,0.76,0.02c4.27,0,7.77-1.6,9.89-4.54c1.32-1.82,2.05-4.07,2.16-6.4c2.01,0.16,4.01,0.37,6.01,0.63
			c4.09,0.5,8.14,1.28,12.14,2.25c1.99,0.49,4,1.01,6.03,1.54c2.02,0.51,4.05,1.01,6.08,1.46c4.07,0.94,8.17,1.73,12.28,2.42
			c4.12,0.7,8.26,1.26,12.41,1.68c4.16,0.43,8.34,0.72,12.52,0.85c-0.01,1.2,0.36,2.44,1.09,3.63c2.16,3.48,7,6.02,12.34,6.46
			c0.18,0.02,0.35,0.02,0.53,0.02c4.75,0,8.55-5.35,9.2-10.6c0.03-0.22,0.04-0.43,0.06-0.65c4.76-0.65,9.47-1.6,14.1-2.93
			c3.99-1.32,7.89-2.93,11.6-4.88c0.93-0.49,1.85-0.98,2.74-1.53c0.45-0.27,0.9-0.52,1.35-0.8l1.31-0.86
			c1.74-1.15,3.39-2.44,4.99-3.76c-6.84,4.75-14.58,7.92-22.56,9.86C169.28,152.57,164.75,153.48,160.17,154.12z M162.8,56.94
			c4.6,6.9,4.83,17.77,2.35,19.92c-0.78,0.68-1.97,0.32-3.52-1.06c-8.02-7.16-12.93-11.34-12.98-11.38l-0.04,0.04
			c-2.61-4.49-6.06-8.29-10.33-11.39C143.61,52.03,158.14,49.93,162.8,56.94z M42.88,75.8c-1.55,1.39-2.74,1.74-3.52,1.06
			c-2.48-2.15-2.25-13.02,2.35-19.92c4.62-6.93,18.87-4.96,24.34-3.9c-3.71,2.86-7.26,6.59-10.24,11.43
			C55.34,64.86,50.53,68.97,42.88,75.8z M65.67,151.69c-1.86,2.57-4.93,3.84-8.9,3.67c-2.16-0.09-3.64-0.79-4.52-2.13
			c-1.26-1.9-1.12-4.74-0.72-6.97c0.14-0.79,0.32-1.51,0.47-2.08c0.23-0.82,0.42-1.35,0.43-1.37l0.04-0.13
			c0.46-2.02,3.77-3.87,7.38-4.12c0.19-0.01,0.44-0.02,0.74-0.02c1.74,0,5.03,0.4,6.12,3.27c0.3,0.8,0.51,1.64,0.63,2.48
			c0.1,0.69,0.13,1.38,0.1,2.07C67.35,148.31,66.75,150.2,65.67,151.69z M137.33,155.28c-0.25-0.01-0.5-0.02-0.74-0.02
			c-0.78-1.59-2.62-5.59-2.89-12.83c-1.38,6.08-0.33,10.42,0.6,12.74c-3.22-0.15-6.44-0.4-9.65-0.73
			c-4.11-0.42-8.21-0.97-12.28-1.67c-4.08-0.69-8.14-1.47-12.17-2.4c-2.02-0.45-4.03-0.95-6.03-1.45c-1.99-0.53-4-1.05-6.05-1.55
			c-4.08-0.98-8.2-1.77-12.36-2.29c-2.11-0.28-4.22-0.5-6.34-0.66c-0.12-1.13-0.39-2.25-0.8-3.34c-1.2-3.16-4.53-4.86-8.92-4.56
			c-3.98,0.27-8.41,2.3-9.23,5.64c-0.09,0.24-0.36,1.03-0.64,2.14c-0.56,0.04-1.13,0.07-1.69,0.11c-3.01-10.27,2.7-14.66,2.95-14.84
			l-0.73-0.49c15.65,10.68,44.21,12.36,47.56,11.34c-0.44-0.04-44.51-3.79-53.26-20.12c-8.69-16.23,5.84-35.76,5.99-35.96l0.15-0.2
			l0.04-0.24c3.09-17.36,12.01-29.09,26.49-34.94c-0.59,2.81-0.1,5.39,1.49,7.61l0.51,0.71l9.57-4.8c0.48,1.86,2.02,5.08,6.89,8.72
			l1.03,0.77l0.52-1.18c1.16-2.63,3.72-6.98,5.67-7.48c-3.42-0.83-5.88,3.23-6.99,5.47c-5.42-4.43-5.28-7.74-5.28-7.76l0.18-1.85
			l-10.91,5.46c-1.19-2.16-1.03-4.48-0.3-6.6c0.31-0.89,0.72-1.74,1.17-2.54c1.63-2.86,3.82-4.94,3.86-4.98l1.32-1.23l-5.7-1.68
			c7.1-2.17,15.83-1.29,15.93-1.28l1.13,0.12v-3.26c8.47,0.95,14.64,7.08,17.79,11.02c0.75,0.94,1.33,1.75,1.72,2.34
			c0.61,0.11,1.22,0.23,1.81,0.36c25.15,5.34,32.37,22.61,33.65,37.51l0.03,0.4l0.29,0.27c0.14,0.13,13.73,12.79,10.41,26.88
			c-2.81,11.92-16.6,21.51-40.99,28.49c14.33-1.86,25.18-6.47,32.47-12.4c0.81,1.4,4.82,9.08,2.88,20.3
			c-1.24-1.19-2.96-2.08-5.29-2.46c-4.23-0.68-7.73-0.02-10.4,1.97C138.45,150.38,137.53,154.21,137.33,155.28z M158.1,156.47
			c0,0.04-0.01,0.09-0.01,0.13c-0.54,4.41-3.75,9.09-7.52,8.78c-5.36-0.45-9.26-3.09-10.76-5.5c-0.4-0.65-0.79-1.53-0.79-2.51
			c0-0.42,0.06-0.85,0.24-1.29l0.06-0.24c0-0.01,0.03-0.2,0.1-0.51c0.27-1.14,1.15-3.98,3.66-5.83c1.62-1.2,3.66-1.81,6.08-1.81
			c0.87,0,1.78,0.08,2.75,0.23c4.78,0.77,5.99,4.06,6.21,6.48C158.2,155.24,158.15,155.98,158.1,156.47z"/>
		<path class="st10" d="M131.15,133.73c0.3,0.02,0.6,0.04,0.9,0.04c3.38,0,5.96-1.62,7.49-4.73c1.28-2.58,1.68-6.03,1.44-9.48
			c3.25-1.61,6.06-3.38,8.28-5.29c6.93-5.97,10.28-14.57,7.63-19.58c-0.97-1.83-3.54-4.53-10.03-3.35c1.54-4.81,0.9-9.56-1.9-13.84
			c-5.22-7.96-17.04-12.84-23.21-12.84c-3.94,0-6.17-2.24-7.65-3.72c-1.01-1.01-1.81-1.81-2.87-1.53c-0.97,0.26-1.43,1.29-1.82,2.76
			c-1.35,5.03-1.39,17.71-1.36,22.49c-1.28-0.54-2.84-0.85-4.54-0.85c-1.66,0-3.18,0.3-4.45,0.82c1.51-10.95-0.15-21.41-3.81-22.99
			c-0.83-0.36-2.49-0.6-4.3,1.82c-2,2.67-6.52,2.73-11.31,2.81c-5.68,0.09-12.12,0.18-15.87,4.78c-4.73,5.8-4.18,13.47-3.82,18.54
			c0.06,0.9,0.14,1.91,0.14,2.7c-2.46-1.61-4.64-2.11-6.48-1.45c-2.12,0.76-3.59,2.99-4.39,6.65c-0.89,4.07,0.28,8.43,3.38,12.59
			c7,9.39,23.27,17.06,38.69,18.22c2.31,0.17,4.67,0.26,7.05,0.26c7.88,0,16-0.93,23.56-2.58
			C123.92,130.15,126.86,133.39,131.15,133.73z M155.08,95.64c2.37,4.48-1.79,12.44-7.16,17.06c-1.95,1.68-4.38,3.25-7.17,4.69
			c-0.37-2.59-1.09-5.08-2.04-7.07c0.3-0.07,0.59-0.14,0.89-0.21c0.57-0.11,1.11-0.32,1.67-0.48c0.56-0.15,1.11-0.35,1.63-0.61
			c2.09-1.03,3.99-2.38,5.64-3.95c1.63-1.59,3.05-3.4,3.99-5.43c-2.63,3.6-6.37,6.19-10.42,7.49c-0.5,0.17-0.99,0.39-1.49,0.54
			c-0.5,0.17-1,0.35-1.53,0.45c-0.48,0.1-0.97,0.24-1.45,0.32c-0.03,0.01-0.07,0.02-0.1,0.02c-0.5,0.09-1.01,0.13-1.53,0.16
			c-0.14,0.01-0.28,0-0.43,0c-1.62,0.01-3.26-0.25-4.88-0.67c-0.31-0.08-0.62-0.16-0.92-0.25c-0.51-0.15-1.02-0.32-1.53-0.49
			c-3.59-1.23-7.08-2.96-10.65-4.55c-2.04-0.91-4.11-1.8-6.26-2.54c-2.15-0.73-4.4-1.31-6.75-1.48c-0.05,0-0.1,0-0.15,0v-4.91
			c0.55-0.05,1.06-0.3,1.42-0.73c0.38-0.44,0.56-1.02,0.52-1.6c0-0.02,0-0.04,0-0.05c0.18,0,0.64,0.08,1.42,0.47
			c0.75,0.37,1.66,0.28,2.33-0.22c0.87,0.21,1.79,0.42,2.77,0.63c0.8,0.17,1.63,0.35,2.49,0.52c0.96,0.19,1.96,0.38,2.98,0.56
			c7.87,1.39,14.63,1.89,20.21,1.5c0.92-0.06,1.81-0.16,2.67-0.27c1.52-0.2,2.94-0.47,4.25-0.82
			C150.34,92.44,153.74,93.12,155.08,95.64z M117.56,104.9c-9.78-1.36-19.73-0.88-27.28,0.38c0.7-0.4,1.4-0.8,2.09-1.18
			c1.92-1.06,3.85-2.01,5.88-2.63c2.01-0.66,4.13-0.84,6.21-0.76c2.09,0.15,4.18,0.68,6.23,1.38c2.05,0.7,4.07,1.56,6.09,2.47
			C117.03,104.66,117.3,104.78,117.56,104.9z M113.87,86.49c0-7.6,6.18-13.78,13.78-13.78c7.6,0,13.78,6.18,13.78,13.78
			c0,2.21-0.54,4.29-1.47,6.15c-8.2,0.84-18.11-0.63-25.5-2.17C114.08,89.21,113.87,87.88,113.87,86.49z M111.4,62.7
			c0.16-0.59,0.29-0.93,0.38-1.13c0.24,0.2,0.58,0.54,0.87,0.83c1.61,1.62,4.31,4.32,9.1,4.32c5.58,0,16.73,4.64,21.5,11.91
			c2.71,4.13,3.12,8.59,1.25,13.25c-0.69,0.17-1.4,0.32-2.12,0.44c0.72-1.8,1.11-3.77,1.11-5.82c0-8.73-7.1-15.83-15.83-15.83
			s-15.83,7.1-15.83,15.83c0,1.2,0.14,2.37,0.39,3.49c-0.29-0.06-0.57-0.13-0.85-0.19c0.1-0.33,0.17-0.66,0.17-1
			c0-1.07-0.52-2.05-1.41-2.85C110.08,82.93,109.98,67.97,111.4,62.7z M103.51,85.86c3.51,0,5.96,1.54,5.96,2.93
			c0,0.18-0.04,0.35-0.12,0.53c-0.09,0.21-0.23,0.43-0.43,0.64c-0.05,0.06-0.14,0.08-0.21,0.04c-0.64-0.32-2.57-1.28-3.74-0.16
			c-0.12,0.12-0.23,0.25-0.32,0.38c-0.09,0.14-0.16,0.29-0.22,0.45c-0.09,0.28-0.13,0.58-0.11,0.92c0,0.05-0.02,0.08-0.07,0.11
			c-0.5,0.03-0.98,0.06-1.56-0.02c-0.01-0.01-0.03-0.04-0.03-0.09c0.03-0.41-0.04-0.77-0.19-1.1c-0.03-0.07-0.06-0.14-0.1-0.21
			c-0.09-0.15-0.2-0.3-0.34-0.44c-0.4-0.39-0.9-0.52-1.4-0.52c-0.17,0-0.33,0.02-0.5,0.04c-0.77,0.12-1.49,0.47-1.83,0.64
			c-0.07,0.03-0.16,0.01-0.21-0.04c-0.36-0.38-0.55-0.78-0.55-1.17C97.55,87.4,99.99,85.86,103.51,85.86z M65.36,72.34
			c3.14-3.86,8.82-3.94,14.31-4.03c5.31-0.08,10.32-0.16,12.92-3.63c0.42-0.55,1.21-1.44,1.84-1.17c2.33,1.01,4.3,10.89,2.32,22.56
			c-0.8,0.78-1.27,1.71-1.27,2.72c0,0.8,0.31,1.58,0.87,2.28c-0.92,0.39-1.93,0.79-3.02,1.19c1.18-2.22,1.86-4.75,1.86-7.43
			C95.2,76.1,88.1,69,79.37,69s-15.83,7.1-15.83,15.83c0,4.63,2,8.8,5.17,11.69c-2.37-0.42-4.64-1.39-6.67-2.86
			c0.19-0.97,0.1-2.33-0.04-4.24C61.66,84.68,61.14,77.51,65.36,72.34z M93.15,84.83c0,3.22-1.12,6.18-2.98,8.53
			c-4.95,1.6-11.02,3.02-17.68,3.38c-4.11-2.39-6.89-6.83-6.89-11.92c0-7.6,6.18-13.78,13.78-13.78S93.15,77.24,93.15,84.83z
			 M91.44,126.23c-14.88-1.12-30.52-8.44-37.2-17.4c-2.77-3.73-3.79-7.4-3.02-10.93c0.64-2.91,1.67-4.65,3.08-5.15
			c0.31-0.11,0.64-0.16,0.98-0.16c1.64,0,3.51,1.18,4.9,2.27c3.42,2.69,7.59,4.09,11.78,3.96c0.11,0,0.21,0,0.32,0h0
			c1.64-0.08,3.23-0.23,4.79-0.42c3.37-0.41,6.53-1.05,9.42-1.8c1.72-0.45,3.34-0.93,4.85-1.43c3.92-1.3,7.1-2.69,9.29-3.75
			c-0.05,0.58,0.14,1.16,0.52,1.59c0.32,0.37,0.76,0.61,1.23,0.69v4.95c-1.61,0.08-3.21,0.34-4.74,0.84
			c-2.23,0.69-4.3,1.71-6.27,2.8c-3.92,2.18-7.61,4.58-11.78,5.52c-4.11,1-8.54,0.69-12.46-0.88c-4.03-1.32-7.75-3.9-10.62-7.3
			c2.18,3.9,5.64,7.17,9.84,9.22c1.52,0.6,3.11,1.02,4.72,1.28c0.16,0.07,1.43,0.61,3.82,0.61c1.86,0,4.4-0.33,7.59-1.47
			c7.12-2.55,21.54-4.17,35.08-2.27c0.24,3.42,1.02,10.88,3.48,17.06C111.55,126.1,101.1,126.96,91.44,126.23z M123.1,123.61
			c-0.71-1.73-1.27-3.56-1.7-5.28c-1.06-4.26-1.7-9.73-1.9-12.23c3.07,0.52,6.25,2.45,9.09,3.38l0-0.01
			c0.16,0.05,0.32,0.11,0.49,0.16c0.84,2.72,4.28,17.97,4.28,17.97c0.15-1.67,0.17-3.31,0.11-4.91c-0.03-0.71-0.07-1.42-0.12-2.11
			c-0.34-4.06-1.17-7.68-1.93-10.35c1.52,0.32,3.09,0.5,4.69,0.44c0.16-0.01,0.32-0.02,0.48-0.04c1.09,2.02,1.89,4.81,2.24,7.69
			c0.08,0.72,0.15,1.44,0.17,2.16c0.1,2.82-0.28,5.57-1.3,7.64c-1.28,2.6-3.43,3.79-6.38,3.55c-3.31-0.27-5.67-2.88-7.35-6.19
			C123.65,124.89,123.36,124.26,123.1,123.61z"/>
		<path class="st11" d="M121.06,107.81c-1.28,0.9,1.1,11.66,2.13,16.01c-0.03-0.07-0.07-0.14-0.1-0.21
			c-0.71-1.73-1.27-3.55-1.7-5.27c-1.07-4.27-1.7-9.73-1.9-12.23c3.08,0.52,6.25,2.45,9.09,3.38l0.01-0.01
			c0.16,0.05,0.32,0.11,0.49,0.16c0.07,0.23,0.16,0.54,0.27,0.92C126.51,110.09,122.53,106.77,121.06,107.81z"/>
		<path class="st11" d="M133.74,116.63c0.18,2.67-0.04,4.94-0.25,6.36c0-0.1,0-0.2-0.01-0.29c-0.02-0.71-0.06-1.42-0.12-2.11
			c-0.34-4.05-1.16-7.68-1.93-10.35c1.52,0.32,3.08,0.5,4.68,0.45c0.16-0.01,0.32-0.03,0.48-0.03c0.23,0.41,0.43,0.86,0.63,1.33
			c-0.64-0.37-1.51-0.55-2.76-0.69C131.88,111,133.44,112.12,133.74,116.63z"/>
		<path class="st12" d="M129.35,110.56c0.79,2.94,2.43,10.06,3.35,14.11c-1.32-5.21-3.85-13.38-4.45-15.3
			c0.12,0.04,0.23,0.08,0.34,0.12l0.01-0.01c0.16,0.05,0.32,0.11,0.49,0.16C129.15,109.87,129.24,110.18,129.35,110.56z"/>
		<path class="st12" d="M133.36,127.57l-0.01-0.04l-0.03-0.14l-0.21-1.01C133.21,126.82,133.3,127.22,133.36,127.57z"/>
		<path class="st12" d="M137.69,128.13c-1.28,2.6-3.43,3.79-6.38,3.55c-2.1-0.17-3.82-1.29-5.23-2.94
			c3.45,2.75,8.07,4.01,10.51,0.25c4.37-6.73,0.18-17.87,0.01-18.33c0.23,0.4,0.42,0.85,0.62,1.31c0.77,1.84,1.34,4.07,1.6,6.36
			c0.09,0.72,0.15,1.44,0.18,2.16C139.09,123.31,138.71,126.06,137.69,128.13z"/>
		<circle class="st11" cx="123.51" cy="118.29" r="0.36"/>
		<circle class="st11" cx="128.42" cy="122.65" r="0.78"/>
		<circle class="st11" cx="126.57" cy="124.31" r="0.49"/>
		<circle class="st11" cx="129.72" cy="126.38" r="0.38"/>
		<circle class="st11" cx="123.97" cy="110.73" r="0.82"/>
		<circle class="st11" cx="122.19" cy="109.01" r="0.36"/>
		<circle class="st11" cx="135.13" cy="113.51" r="0.19"/>
		<circle class="st11" cx="136.59" cy="116.4" r="0.63"/>
		<circle class="st11" cx="135.54" cy="114.99" r="0.41"/>
		<circle class="st11" cx="127.74" cy="114.2" r="0.68"/>
		<circle class="st11" cx="123.99" cy="112.66" r="0.48"/>
		<circle class="st11" cx="126.81" cy="111.35" r="0.24"/>
		<circle class="st11" cx="123.11" cy="115.19" r="0.21"/>
		<circle class="st10" cx="121.06" cy="89.21" r="4.46"/>
		<circle class="st10" cx="87.04" cy="91.37" r="4.46"/>
		<circle class="st3" cx="83.82" cy="89.42" r="1.24"/>
		<circle class="st3" cx="123.99" cy="86.91" r="1.24"/>
		<path class="st13" d="M66.96,85.86c0-7.63,6.18-13.81,13.81-13.81c0.71,0,1.41,0.07,2.09,0.18c-1.11-0.31-2.28-0.49-3.49-0.49
			c-7.19,0-13.01,5.83-13.01,13.01c0,2.27,0.58,4.4,1.61,6.26C67.32,89.42,66.96,87.68,66.96,85.86z"/>
		<path class="st13" d="M117.93,78.89c5.21-5.57,13.95-5.86,19.52-0.65c0.52,0.49,0.98,1.01,1.41,1.56
			c-0.6-0.99-1.33-1.91-2.22-2.74c-5.25-4.91-13.48-4.63-18.39,0.61c-1.55,1.66-2.58,3.61-3.1,5.67
			C115.76,81.73,116.69,80.22,117.93,78.89z"/>
		<path class="st14" d="M118.57,114.95c-0.77-2.34-1.52-4.47-1.97-5.28c-1.17-2.15-12.36-1.73-20.51-1.01
			c-8.14,0.71-17.48,4.35-16.72,6.34c0.75,1.98,4.54,5.87,12.13,6.2c7.59,0.33,17.96,0,17.96,0s-12.42,2.86-23.19,0.62
			c3.73,0.85,11.25,2.25,19.64,2.02c0,0-14.27,2.18-26.21-2.62c0.65,0.33,12.59,6.21,29.61,4.71c-5.99,0.62-12.07,0.76-17.87,0.32
			c-14.88-1.12-30.53-8.44-37.2-17.4c-2.77-3.73-3.79-7.4-3.02-10.92c0.27-1.27,0.64-2.33,1.06-3.14h0.01
			c5.44,0.22,6.12,7.51,15.86,11.34c4.18,1.65,11.61,1.23,20.53-3.62c8.92-4.85,11.67-5.15,11.67-5.15s-3.95,0.04-10.42,3.34
			c0,0,4.97-3.7,9.28-4.42c0,0,1.01,0.23,1.14-1.5c0.12-1.73-9.1,2.05-13.86,1.84c1.72-0.45,3.34-0.93,4.85-1.42
			c3.92-1.3,7.1-2.69,9.29-3.75c-0.04,0.58,0.14,1.16,0.52,1.59c0.32,0.38,0.75,0.61,1.23,0.7v4.95c-1.61,0.08-3.21,0.34-4.74,0.84
			c-2.23,0.68-4.3,1.71-6.27,2.8c-3.92,2.18-7.62,4.58-11.78,5.51c-4.11,1.01-8.53,0.69-12.45-0.88c-4.03-1.32-7.75-3.9-10.62-7.3
			c2.18,3.9,5.64,7.18,9.84,9.22c1.53,0.6,3.11,1.02,4.73,1.28c0.15,0.08,1.43,0.61,3.82,0.61c1.86,0,4.39-0.33,7.58-1.47
			c7.12-2.55,21.55-4.16,35.08-2.27C117.7,108.8,117.97,111.7,118.57,114.95z"/>
		<path class="st14" d="M121.06,103.33c5.18,3.26,9.55,4.91,13.87,5.29c-1.4-0.05-2.81-0.3-4.22-0.66
			c-0.31-0.08-0.62-0.16-0.92-0.25c-0.51-0.15-1.02-0.32-1.53-0.49c-3.59-1.23-7.08-2.97-10.65-4.55c-2.03-0.91-4.11-1.79-6.26-2.53
			c-2.16-0.73-4.4-1.31-6.75-1.48c-0.05-0.01-0.1-0.01-0.16-0.01v-4.91c0.55-0.05,1.06-0.3,1.42-0.73c0.38-0.43,0.56-1.01,0.52-1.6
			c-0.01-0.02-0.01-0.03-0.01-0.05c0.18,0,0.64,0.08,1.42,0.47c0.75,0.38,1.66,0.27,2.33-0.22c0.87,0.21,1.79,0.42,2.77,0.63
			c0.8,0.17,1.64,0.35,2.49,0.52c0.97,0.19,1.96,0.38,2.99,0.56c0.62,0.11,1.22,0.21,1.82,0.31c-2.31-0.14-5.05-0.32-6.99-0.43
			c-4.07-0.24-5.99,0.13-6.04,1.02c-0.06,0.9,7.23,2.21,10.37,5.44c-0.32-0.16-5.41-2.65-9.69-3.46
			C108.25,96.39,114.69,99.33,121.06,103.33z"/>
		<path class="st3" d="M155.48,100.95c0.36-4-1.91-6.68-4.66-6.94c-4.34-0.4-5.87,1.67-18.27,1.69c-9.03,0.01-17.48-2.48-21.4-3.84
			c0.56,0.13,1.14,0.26,1.75,0.39c0.8,0.17,1.64,0.35,2.49,0.52c0.97,0.19,1.96,0.38,2.99,0.56c0.62,0.11,1.22,0.21,1.82,0.31
			c7.09,1.15,13.25,1.55,18.39,1.19c0.92-0.06,1.81-0.16,2.67-0.27c1.51-0.2,2.94-0.47,4.25-0.82c4.84-1.3,8.24-0.62,9.57,1.9
			C155.86,97.12,155.93,98.97,155.48,100.95z"/>
		<path class="st14" d="M148.1,108.23c0,0-1.01,5.9-7.66,7.41c-0.1-0.46-0.21-0.91-0.32-1.35
			C141.99,113.74,145.57,112.21,148.1,108.23z"/>
		<path class="st14" d="M139.83,113.25c-0.32-1.05-0.69-2.03-1.12-2.92c0.29-0.08,0.59-0.14,0.89-0.21
			c0.57-0.11,1.11-0.32,1.67-0.48c0.56-0.15,1.1-0.36,1.63-0.61c2.08-1.03,3.99-2.38,5.64-3.95c0.2-0.19,0.4-0.39,0.59-0.6
			C148.04,106.72,144.99,111.91,139.83,113.25z"/>
		<path class="st15" d="M116.92,101.77c0.18,0.06,13.45,6.82,18.01,6.46c4.56-0.36,12.93-2.93,14.85-6.46c0,0-6.16,5.8-15.8,5.33
			C127.64,106.78,116.92,101.77,116.92,101.77z"/>
		<path class="st15" d="M146.79,94.49c0,0,6.16-1.18,7.66,1.94c1.5,3.12-1.44,10.05-3.83,12.2
			C150.62,108.62,160.85,93.73,146.79,94.49z"/>
		<path class="st15" d="M111.84,92.32c0,0,10.88,3.84,26.87,3.29C138.71,95.6,123.87,98.1,111.84,92.32z"/>
		<path class="st14" d="M128.25,104.48c0,0,11.3,3.22,18.12-1.75C146.37,102.73,139.15,108.92,128.25,104.48z"/>
		<path class="st14" d="M120.68,123.08c-1.82,0.44-9.9,2.26-16.25,2.21c0,0,11.2-1.67,15.75-3.67
			C120.34,122.11,120.51,122.6,120.68,123.08z"/>
		<circle class="st14" cx="83.6" cy="115.31" r="0.74"/>
		<circle class="st14" cx="85.82" cy="113.9" r="0.2"/>
		<circle class="st14" cx="86.72" cy="117.31" r="0.7"/>
		<circle class="st14" cx="88.87" cy="113.09" r="0.43"/>
		<circle class="st14" cx="89.39" cy="115.09" r="0.1"/>
		<circle class="st14" cx="90.27" cy="118.91" r="0.98"/>
		<circle class="st14" cx="117.47" cy="120.41" r="0.87"/>
		<circle class="st14" cx="117.71" cy="117.93" r="0.24"/>
		<circle class="st14" cx="113.57" cy="121.6" r="0.41"/>
		<circle class="st14" cx="125.92" cy="101.96" r="0.65"/>
		<circle class="st14" cx="133.51" cy="104.02" r="0.81"/>
		<circle class="st14" cx="130.36" cy="103.84" r="0.63"/>
		<circle class="st14" cx="150.55" cy="97.28" r="0.54"/>
		<circle class="st14" cx="152.7" cy="97.87" r="0.58"/>
		<circle class="st14" cx="150.29" cy="99.16" r="0.27"/>
		<circle class="st14" cx="150.58" cy="105.28" r="0.8"/>
		<circle class="st14" cx="149.75" cy="107.07" r="0.27"/>
		<circle class="st14" cx="109.73" cy="94.27" r="0.26"/>
		<circle class="st14" cx="111.48" cy="94.4" r="0.72"/>
		<circle class="st14" cx="89.31" cy="98.27" r="0.45"/>
		<circle class="st14" cx="85.54" cy="98.27" r="0.45"/>
		<circle class="st14" cx="84.48" cy="100.88" r="0.89"/>
		<circle class="st14" cx="65.35" cy="101.13" r="0.25"/>
		<circle class="st14" cx="66.77" cy="102.19" r="0.42"/>
		<circle class="st14" cx="64.13" cy="101.66" r="0.53"/>
		<circle class="st14" cx="71.3" cy="104.17" r="0.34"/>
		<circle class="st14" cx="75.21" cy="104.52" r="1.02"/>
		<circle class="st14" cx="77.34" cy="104.17" r="0.34"/>
		<circle class="st14" cx="58.55" cy="96.65" r="0.51"/>
		<path class="st15" d="M99.13,92.13c-5.62,3.38-19.75,7.72-29.36,7.09c-10.71-0.71-11.49-6.97-15.03-5.54
			c-2.05,0.82-3.12,3.13-3.64,4.91c0.03-0.23,0.08-0.45,0.12-0.68c0.27-1.27,0.64-2.33,1.06-3.14c0.55-1.05,1.23-1.73,2.02-2.01
			c0.32-0.11,0.64-0.16,0.98-0.16c1.64,0,3.51,1.18,4.9,2.27c3.42,2.69,7.59,4.09,11.77,3.95h0.32c1.64-0.08,3.23-0.23,4.79-0.42
			c3.37-0.41,6.53-1.05,9.42-1.8c1.72-0.45,3.34-0.93,4.85-1.42C94.45,94.15,97.08,93.06,99.13,92.13z"/>
		<path class="st15" d="M95.13,100.42c-1.3,0.56-2.55,1.21-3.75,1.88c-3.92,2.18-7.62,4.58-11.78,5.51
			c-4.11,1.01-8.53,0.69-12.45-0.88c-3.51-1.15-6.77-3.25-9.44-6.01c0.72,0.64,8.34,7.16,17.51,6.83
			C82.21,107.49,88.26,102.74,95.13,100.42z"/>
		<path class="st15" d="M85.05,111.1c0,0,17.28-4.78,30.92-1.73C115.97,109.37,104.39,107.57,85.05,111.1z"/>
		<path class="st16" d="M117.55,104.47c0,0-0.01,0.18-0.04,0.41c0,0,0,0.01,0,0.01c-8.26-1.14-16.64-0.98-23.6-0.14
			c0.61-0.45,4.31-2.99,10.01-3.1c3.27-0.07,6.86,0.71,9.53,1.45C115.88,103.8,117.55,104.47,117.55,104.47z"/>
		<path class="st15" d="M109.47,88.79c0,0.17-0.04,0.35-0.12,0.52c-0.03,0.09-0.08,0.17-0.13,0.25c-0.21-1.66-1.85-3.38-5.71-3.12
			c-6.12,0.42-5.65,3.22-5.65,3.22c-0.21-0.29-0.31-0.58-0.31-0.88c0-1.39,2.45-2.93,5.96-2.93S109.47,87.4,109.47,88.79z"/>
		<path class="st17" d="M63.54,84.83c0,4.62,1.99,8.79,5.17,11.69c-2.37-0.42-4.64-1.4-6.67-2.86c0.19-0.97,0.1-2.33-0.04-4.24
			c-0.03-0.49-0.07-1-0.1-1.53c0.42,2.31,1.05,4.46,1.95,4.99c2.15,1.28-2.44-3.65-0.72-11.77c1.72-8.1,11.29-11.88,13.09-11.81
			C69,70.77,63.54,77.18,63.54,84.83z"/>
		<path class="st17" d="M96.75,86.07c-0.79,0.77-1.26,1.71-1.26,2.72c0,0.8,0.31,1.58,0.87,2.27c-0.92,0.39-1.93,0.79-3.02,1.2
			c1.18-2.22,1.86-4.75,1.86-7.43c0-6.79-4.3-12.6-10.31-14.85C86,70.31,94.96,73.17,95.86,82.2c0,0,1.18-12.14-0.73-15.68
			c-0.73-1.34-1.8-1.62-2.86-1.45c0.12-0.12,0.22-0.25,0.32-0.39c0.42-0.55,1.21-1.45,1.84-1.17
			C96.76,64.52,98.73,74.41,96.75,86.07z"/>
		<circle class="st17" cx="93.3" cy="72.23" r="0.49"/>
		<circle class="st17" cx="92.63" cy="69.49" r="0.18"/>
		<circle class="st17" cx="65.58" cy="73.78" r="0.23"/>
		<path class="st17" d="M125.03,70.88c0.05-0.01,0.12-0.01,0.17-0.02c-7.57,1.17-13.4,7.74-13.4,15.64c0,1.2,0.14,2.37,0.4,3.49
			c-0.29-0.07-0.58-0.13-0.86-0.19c0.1-0.33,0.17-0.66,0.17-1c0-1.07-0.51-2.05-1.4-2.86c-0.03-3.01-0.13-17.96,1.28-23.24
			c0.16-0.59,0.29-0.94,0.38-1.14c0.25,0.21,0.58,0.54,0.87,0.83c1.29,1.29,3.28,3.29,6.49,4.03c-1.52,0.04-3.67-0.2-5.39-1.52
			c-0.43-0.33-1.04-0.09-1.14,0.43c-0.47,2.58-1.45,8.78-1.37,15.55C111.24,80.88,115.66,72.25,125.03,70.88z"/>
		<path class="st17" d="M144.45,87.76c-0.23,1.75-0.47,3.16-0.71,4.28c-0.45,0.1-0.91,0.19-1.38,0.27c0.72-1.81,1.12-3.77,1.12-5.83
			c0-2.91-0.79-5.64-2.16-7.98C143.57,81.39,144.85,84.7,144.45,87.76z"/>
		<path class="st14" d="M63.13,55.51c-2.64,2.45-5.14,5.4-7.32,8.96c-0.47,0.4-5.28,4.51-12.93,11.33
			c-1.55,1.38-2.74,1.74-3.52,1.06c-2.16-1.88-2.26-10.38,0.8-17.11c-1.13,3.84-2.1,8.62-0.29,9.74c3.11,1.94,6.69-7.2,13.23-10.14
			c-0.24,0.21-4.12,3.64-5.97,7.12C47.36,66.21,54.07,58.68,63.13,55.51z"/>
		<path class="st14" d="M165.15,76.86c-0.78,0.68-1.97,0.32-3.52-1.06c-8.02-7.16-12.94-11.33-12.99-11.38l-0.03,0.04
			c-2.12-3.64-4.79-6.83-8.01-9.56c3.35,1.02,8.85,3.02,11.89,5.84c4.26,3.93,5.46,5.4,5.61,5.59c-0.22-0.36-3.84-6.19-7.24-7.98
			c0.35,0.08,5.9,1.56,8.68,5.5c2.62,3.7,6.01-2.1,2.05-8.33c0.45,0.42,0.86,0.9,1.21,1.42C167.4,63.84,167.63,74.71,165.15,76.86z"
			/>
		<path class="st15" d="M166.69,71.89c-0.34-6.47-3.25-14.66-6.97-16.99c-5.51-3.44-20.88-1.42-20.88-1.42l-0.02-0.01
			c-0.18-0.14-0.36-0.28-0.54-0.41c4.93-0.97,17.73-2.83,23.32,2.45c0.45,0.42,0.86,0.9,1.21,1.42
			C165.78,61.4,166.93,67.53,166.69,71.89z"/>
		<path class="st15" d="M66.05,53.03c-0.32,0.25-0.64,0.5-0.95,0.76c-4.1-0.79-12.32-1.86-18.37,0.55
			c-3.94,1.58-6.46,5.64-8.01,9.49c0.37-1.38,0.85-2.77,1.45-4.08c0.45-0.99,0.96-1.93,1.55-2.81
			C46.33,50.01,60.59,51.98,66.05,53.03z"/>
		<path class="st9" d="M134.3,155.16c-3.22-0.15-6.44-0.4-9.64-0.73c-2.18-0.22-4.35-0.48-6.52-0.79
			c6.37-0.12,11.82-1.32,12.93-2.42c1.25-1.25,1.81-3.51,2.05-5.03C132.78,150.31,133.58,153.36,134.3,155.16z"/>
		<path class="st9" d="M133.3,144.64c-0.01,0.02-0.01,0.03-0.01,0.05c0.01-0.05,0.01-0.07,0.01-0.07S133.29,144.63,133.3,144.64z"/>
		<path class="st14" d="M67.43,146.34c-0.09,1.97-0.68,3.86-1.76,5.34c-1.86,2.58-4.94,3.84-8.9,3.67
			c-2.16-0.09-3.64-0.79-4.52-2.13c-1.26-1.9-1.12-4.74-0.73-6.97c0.14-0.79,0.32-1.51,0.47-2.08c0.23-0.82,0.42-1.35,0.43-1.37
			l0.03-0.13c0.34-1.45,2.13-2.81,4.46-3.55c-2.27,2.83-2.81,9.95-0.46,11.55c2.79,1.9,7.58-0.66,8.3-2.09
			c0.71-1.43,0.95-4.29,0.48-5.73c0.1,0.23,1.24,2.88,0.26,5.62c0.15-0.35,1.32-3.18,1.36-6.19c0.22,0.65,0.37,1.32,0.47,2
			C67.43,144.97,67.46,145.66,67.43,146.34z"/>
		<path class="st14" d="M156.28,157.53c-0.18,3.05-2.08,6.29-5.92,7.83c-5.25-0.49-9.08-3.1-10.55-5.48
			c-0.4-0.64-0.79-1.53-0.79-2.51c0-0.42,0.06-0.85,0.23-1.29l0.07-0.24c0-0.01,0.03-0.2,0.1-0.51c0.25-1.09,1.07-3.73,3.33-5.57
			c-0.85,2.15-2.38,7.16,0.84,9.2c4.15,2.64,7.43-1.18,7.23-3.58c0,0,0.91,3.19-0.9,4.47c0.25-0.12,4.23-2.04,2.14-8.3
			C152.05,151.54,156.54,152.94,156.28,157.53z"/>
		<path class="st15" d="M158.1,156.47c0,0.05-0.01,0.09-0.01,0.13c-0.36,2.96-1.92,6.04-4.05,7.66c8.39-10.12-0.25-17.66-7.49-15.27
			c-5.68,1.88-7.07,6.8-7.41,9.29c-0.07-0.29-0.11-0.59-0.11-0.9c0-0.42,0.06-0.85,0.23-1.29l0.07-0.24c0-0.01,0.03-0.2,0.1-0.51
			c0.25-1.09,1.07-3.73,3.33-5.57c0.1-0.09,0.21-0.18,0.33-0.26c1.62-1.21,3.66-1.81,6.07-1.81c0.87,0,1.79,0.08,2.75,0.23
			c4.77,0.77,5.99,4.06,6.21,6.48C158.2,155.24,158.15,155.98,158.1,156.47z"/>
		<path class="st15" d="M67.43,146.34c-0.09,1.97-0.68,3.86-1.76,5.34c-0.55,0.76-1.2,1.4-1.95,1.93c2.84-3.14,3.35-7.82,2.64-10.77
			c-1.03-4.23-6.85-4.25-10.77-2.64c-1.75,0.72-2.85,2.27-3.53,3.77c0.21-0.71,0.37-1.15,0.38-1.17l0.03-0.13
			c0.34-1.45,2.13-2.81,4.46-3.55c0.91-0.29,1.91-0.49,2.92-0.56c0.19-0.01,0.45-0.03,0.74-0.03c1.74,0,5.03,0.4,6.12,3.27
			c0.06,0.16,0.12,0.32,0.16,0.48c0.22,0.65,0.37,1.32,0.47,2C67.43,144.97,67.46,145.66,67.43,146.34z"/>
		<path class="st9" d="M86.76,53.56l2.16-1.08c0.47,1.79,1.92,4.88,6.44,8.38C90.9,59.66,87.8,55.23,86.76,53.56z"/>
		<path class="st9" d="M108.49,132.07c4.04-0.23,12.24-3.68,13.25-4.11c-1.44,0.5-18.22,6.06-42.77,0.04
			c-25.69-6.31-30.03-19.76-30.03-19.76c0.6,13.77,17.31,22.82,17.83,23.1c-10.43-3.51-16.3-10.07-16.3-10.07
			c2.95,7.24,14.66,12.24,23.51,15.07c-12.04-3-24.98-7.99-29.29-16.06c-8.7-16.22,5.84-35.76,5.99-35.96l0.15-0.2l0.04-0.24
			c3.09-17.36,12.01-29.09,26.49-34.94c-0.59,2.79-0.1,5.36,1.47,7.58l-1.05,0.45c-1.68-2.47-2.24-5.75-2.24-5.75
			C59.09,59.7,57.02,71.05,57.02,71.05c2.48-6.84,8.56-10.31,8.56-10.31c-10.48,9.99-9.79,22.96-9.55,25.43
			c-0.1-1.68-0.15-8.26,4.18-15.12c5.03-7.95,18.51-6.01,22.65-5.77c4.01,0.23,7.86-1.71,8.08-1.83c-2,2.66-6.52,2.73-11.3,2.8
			c-5.68,0.08-12.12,0.18-15.87,4.78c-4.73,5.8-4.18,13.46-3.82,18.53c0.07,0.9,0.14,1.92,0.14,2.7c-2.47-1.61-4.64-2.11-6.48-1.45
			c-2.12,0.76-3.6,3-4.4,6.65c-0.89,4.08,0.28,8.42,3.38,12.59c6.99,9.39,23.27,17.05,38.69,18.22c2.31,0.18,4.66,0.26,7.05,0.26
			c7.88,0,16.01-0.92,23.56-2.58c0.73,1.51,1.58,2.89,2.57,4.06C117.34,131.86,108.49,132.07,108.49,132.07z"/>
		<path class="st9" d="M108.05,84.66c-1.28-0.54-2.84-0.86-4.54-0.86c-1.66,0-3.18,0.3-4.44,0.82c0.79-5.72,0.71-11.31-0.07-15.57
			c0.98,3.31,2.01,8.2,1.51,13.07c0,0,2.79-0.8,5.75,0c0,0,1.11-11.24,2.6-16.99C108.05,71.08,108.02,80.65,108.05,84.66z"/>
		<path class="st9" d="M163.16,111.95c-2.14,9.04-10.57,16.74-25.16,22.98c5.21-2.86,13.39-8.06,17.76-14.52
			c6.75-9.97,3.96-17.81,3.96-17.81s0.88,10.07-6.97,17.22c0.58-0.64,5.58-6.21,5.05-14.29c0,0-4.27,10.14-16.76,15.65
			c-0.01-0.54-0.03-1.09-0.06-1.63c3.25-1.6,6.06-3.38,8.29-5.29c6.93-5.97,10.28-14.57,7.63-19.58c-0.97-1.83-3.54-4.53-10.03-3.34
			c1.55-4.81,0.9-9.56-1.9-13.84c-5.21-7.95-17.03-12.84-23.21-12.84c-1.01,0-1.92-0.15-2.73-0.4c3.55,0.27,8.84-0.01,13.53,2.09
			c7.22,3.25,14.72,7.4,16.23,16.45c0,0-0.64-9.44-8.64-13.83c0.38,0.05,6.45,1,9.61,10.12c0,0-1.48-11.56-7.64-19.92
			c6.89,7.4,9.57,16.71,10.31,25.24l0.03,0.4l0.29,0.27C152.89,85.2,166.48,97.87,163.16,111.95z"/>
		<path class="st3" d="M157.52,148.35c-1.25-1.19-2.97-2.08-5.29-2.46c-3.34-0.54-6.22-0.24-8.6,0.89
			c5.66-3.68,12.96,0.17,12.96,0.17c1.6-10.57-2.55-17.2-2.55-17.2c-2.5,2.51-10.95,5.18-10.95,5.18l0.01-0.01
			c4.52-1.96,8.37-4.29,11.54-6.88C155.45,129.45,159.46,137.12,157.52,148.35z"/>
		<path class="st3" d="M43.86,116.61c0,0,2.57,17.84,51.28,23.23C95.13,139.84,53.91,135.58,43.86,116.61z"/>
		<path class="st3" d="M144.42,61.9c-10.57-11.81-28.11-14.18-28.11-14.18c-6.86-11.64-17.31-13.24-17.31-13.24v3.11
			c-5.88-1.6-14.12-0.74-17.62-0.26c6.89-1.82,14.86-1.02,14.94-1.01l1.14,0.12v-3.26c8.47,0.95,14.64,7.07,17.79,11.02
			c0.75,0.94,1.32,1.75,1.72,2.34c0.62,0.12,1.22,0.23,1.81,0.36c10.74,2.27,18.21,6.74,23.34,12.26
			C142.94,60.05,143.71,60.97,144.42,61.9z"/>
		<path class="st3" d="M128.25,65.02c0,0,21.65,4.89,20.14,22.36C148.38,87.39,153.51,70.83,128.25,65.02z"/>
		<path class="st3" d="M160.19,105.01c0,0-1.04,19.01-20.07,25.47C140.12,130.47,159.15,126.77,160.19,105.01z"/>
		<circle class="st9" cx="66.64" cy="62.61" r="0.28"/>
		<circle class="st9" cx="69.83" cy="61.38" r="0.52"/>
		<circle class="st9" cx="73.88" cy="55.09" r="0.42"/>
		<circle class="st9" cx="71.11" cy="55.72" r="0.21"/>
		<circle class="st9" cx="86.15" cy="56.88" r="0.61"/>
		<circle class="st9" cx="86.59" cy="62.35" r="0.45"/>
		<circle class="st9" cx="102.36" cy="76.7" r="0.5"/>
		<circle class="st9" cx="105.13" cy="78.56" r="0.69"/>
		<circle class="st9" cx="102.33" cy="79.39" r="0.46"/>
		<circle class="st9" cx="54.66" cy="118.09" r="0.35"/>
		<circle class="st9" cx="58.6" cy="122.09" r="0.9"/>
		<circle class="st9" cx="62.2" cy="124.25" r="0.42"/>
		<circle class="st9" cx="65.47" cy="124.92" r="0.12"/>
		<circle class="st9" cx="71.66" cy="139.48" r="0.36"/>
		<circle class="st9" cx="75.82" cy="140.81" r="0.6"/>
		<circle class="st9" cx="73.3" cy="141.97" r="0.56"/>
		<circle class="st9" cx="122.65" cy="132.77" r="0.46"/>
		<circle class="st9" cx="126.75" cy="134.59" r="0.83"/>
		<circle class="st9" cx="123.65" cy="135.95" r="0.53"/>
		<circle class="st9" cx="128.75" cy="148.02" r="0.33"/>
		<circle class="st9" cx="127.44" cy="149.92" r="0.69"/>
		<circle class="st9" cx="130.54" cy="150.1" r="0.44"/>
		<circle class="st9" cx="122.07" cy="151.8" r="0.58"/>
		<circle class="st9" cx="137.21" cy="146.33" r="0.62"/>
		<circle class="st9" cx="139.99" cy="146.33" r="0.62"/>
		<circle class="st9" cx="153.41" cy="115.9" r="0.71"/>
		<circle class="st9" cx="154.52" cy="113.5" r="0.41"/>
		<circle class="st9" cx="139.18" cy="63.36" r="0.47"/>
		<circle class="st9" cx="141.27" cy="65.69" r="0.66"/>
		<circle class="st9" cx="144.13" cy="65.59" r="0.46"/>
		<circle class="st14" cx="158.48" cy="56.94" r="0.68"/>
		<circle class="st14" cx="160.53" cy="60" r="0.65"/>
		<circle class="st14" cx="160.36" cy="58.06" r="0.17"/>
		<circle class="st14" cx="161.65" cy="63.36" r="0.47"/>
		<circle class="st14" cx="155.86" cy="58.16" r="0.54"/>
		<circle class="st14" cx="43.98" cy="59.56" r="0.21"/>
		<circle class="st14" cx="41.6" cy="61.86" r="0.3"/>
		<circle class="st14" cx="44.65" cy="62.26" r="0.88"/>
		<circle class="st14" cx="42.01" cy="64.97" r="0.4"/>
		<circle class="st14" cx="47.72" cy="59.36" r="0.2"/>
		<circle class="st14" cx="51.45" cy="58.36" r="0.47"/>
		<circle class="st14" cx="47.59" cy="56.71" r="0.78"/>
	</g>
</g>
</svg>
