<?xml version="1.0" encoding="UTF-8"?>
<svg enable-background="new 0 0 320.063 277.703" viewBox="0 0 320.063 277.703" xmlns="http://www.w3.org/2000/svg">
 <path d="m202.842,105.966c4.033,2.052 10.117,3.672 18.686,5.292 8.494,1.476 21.814,1.836 32.039,3.852 10.188,1.944 25.02,5.256 28.549,8.136 3.311,2.736.539,5.796-8.461,8.784 2.484,1.656 3.313,3.024 2.484,4.248-.828,1.116-3.348,2.052-7.416,2.808 1.332,2.988 1.08,4.752-.359,5.291-1.656.504-6.48-.07-8.785-2.123-2.305-2.16-3.744-5.688-4.607-10.584-5.939-4.14-13.824-7.02-23.939-8.784-10.225-1.8-22.248-2.34-36.648-1.764 2.804-5.04 5.613-10.08 8.457-15.156z" fill-rule="evenodd" stroke="#000" stroke-miterlimit="10" stroke-width=".036"/>
 <path d="m198.27,107.37c5.365,1.512 10.873,2.88 16.92,4.248 5.977,1.332 11.988,2.808 19.01,3.852 6.947.936 14.363,1.476 22.535,1.764-1.691.612-3.023,1.62-3.852,3.168-.936,1.548-1.369,3.456-1.441,6.012-6.875-3.384-15.154-5.688-24.982-7.056-9.938-1.332-21.025-1.728-33.84-1.044-2.557-.792-3.42-2.088-2.449-3.888 1.007-1.872 3.528-4.176 8.099-7.056z" fill="#ad4200" fill-rule="evenodd"/>
 <path d="m258.498,118.026c4.68.576 8.855,1.404 12.672,2.628 3.781,1.188 8.893,2.952 9.793,4.464 .719,1.368-3.529,2.88-5.113,3.852-1.654.864-3.131,1.332-4.57,1.404l-3.781-2.628c1.477,1.656 2.701,3.312 3.672,4.572 .9,1.296 2.34,2.34 1.945,3.276-.576.9-2.125,1.548-4.934,2.088l-3.311-4.356c1.512,2.7 2.482,4.788 2.627,6.409 .107,1.547-.648,2.664-1.584,2.951-1.08.217-2.412.252-3.996-1.691-1.619-2.088-3.24-5.508-5.256-10.404l-3.779-2.844c-.396-2.808-.18-4.968.791-6.624 .9-1.693 2.556-2.629 4.824-3.097z" fill="#ede9b0" fill-rule="evenodd" stroke="#000" stroke-miterlimit="10" stroke-width=".036"/>
 <path d="m168.498,98.802c-6.443,9.612-24.731,27.288-31.788,40.429-10.224.828-20.448,2.879-31.104,6.156-10.8,3.168-24.264,12.275-32.472,13.283-8.208.936-7.272-2.951-16.488-7.488-9.288-4.645-33.336-18.864-38.7-20.016-5.292-1.152-.288,6.048 6.66,12.852 6.912,6.768 18.144,15.48 34.272,26.965-2.052,9.971-2.844,17.711-2.52,23.508 .288,5.795 1.8,9.359 4.536,10.98-9.216,9.791-15.12,19.691-17.568,30.238-2.52,10.477-.612,25.129 2.664,32.293 3.276,7.057 8.604,10.152 16.56,9.684 5.976-.215 11.484-1.152 16.524-2.664 5.004-1.656 11.16-4.211 13.608-6.695 2.34-2.557 2.628-5.221.72-8.281 4.86,3.385 9.54,5.473 14.184,6.121 4.536.611 7.776.828 13.464-2.125 5.724-3.131 16.38-10.115 20.448-16.092 3.816-6.084 3.78-15.84 2.952-19.979-.936-4.213-3.6-5.725-8.28-4.824 5.112-2.484 9.216-5.293 12.456-8.713 3.276-3.455 5.364-7.271 6.804-11.592 10.548-4.355 19.728-8.531 27.937-12.672 8.135-4.213 15.191-5.004 20.734-12.096 5.438-7.201 9.324-17.209 11.809-30.457 8.424-9.431 13.068-18.431 14.508-27.54 1.26-9.144-.828-17.964-6.551-26.856-48.816-19.979-29.232-10.367-55.369,5.581z" fill-rule="evenodd" stroke="#000" stroke-miterlimit="10" stroke-width=".036"/>
 <path d="m74.97,235.961c3.024,5.113 7.2,9.973 12.672,14.438 5.364,4.535 14.004,11.016 20.088,12.348 6.012,1.08 11.412-.541 16.2-5.293-6.048-2.34-8.532-3.814-7.74-4.572 .9-.791 4.932-.791 12.672,0 2.808-1.619 4.68-3.023 6.012-4.607 1.188-1.584 1.656-3.061 1.404-4.572-7.092-.467-10.224-1.332-9.54-2.447 .792-1.225 5.148-2.699 13.752-4.572 .936-.791.936-2.088 0-3.889-1.044-1.871-2.988-4.176-5.976-7.055-5.004,1.332-10.008,2.555-15.156,3.527-5.256.9-14.508,2.736-15.516,2.447-.936-.395 2.304-1.654 9.864-4.211-3.492-4.355-6.876-6.516-10.548-6.336-3.708.18-7.092,5.725-11.268,7.057-4.284,1.115-10.908-1.332-13.752,0s-3.851,3.778-3.168,7.737z" fill="#ede9b0" fill-rule="evenodd" stroke="#000" stroke-miterlimit="10" stroke-width=".036"/>
 <path d="m115.47,225.018c.108-.863-.828-1.799-2.808-2.809-2.016-1.15-6.192-3.814-9.18-3.527-3.132.289-6.048,4.32-9.144,5.293-3.168.828-5.94-.469-9.144,0-3.204.322-7.56.898-9.864,2.123-2.412,1.152-3.78,2.844-4.248,4.932-3.816-2.771-4.752-6.012-2.808-9.863 1.98-3.889 6.696-8.352 14.436-13.393-3.996.648-7.776-.576-11.628-3.527-3.924-3.168-9.9-8.676-11.268-14.436-1.332-5.797-.324-12.24 3.168-19.729-5.508-3.275-10.62-6.553-15.48-10.225-4.932-3.744-9.468-7.488-13.752-11.627l3.168-3.854c7.596,4.717 14.4,8.496 20.412,11.629 6.012,3.023 11.088,5.291 15.516,6.66 4.212-.541 8.46-.396 13.032.721 4.572,1.043 9,6.479 14.112,5.615 5.004-1.008 10.98-9.611 15.84-11.232 4.86-1.656 7.956,5.111 13.032,1.404 5.004-3.852 8.856-17.928 16.56-24.336 7.56-6.624 18.144-10.656 28.548-14.436 10.367-3.852 25.236-9.144 33.084-8.1 7.668,1.008 11.879,9.288 13.068,14.436 1.043,5.112-4.5,10.332-6.373,16.2-1.943,5.76-1.836,11.916-4.932,18.324-3.133,6.229-5.832,13.428-14.076,19.367-8.496,5.869-20.195,11.16-35.928,15.877-.756-6.877-2.592-12.816-5.652-17.965-3.096-5.219-7.272-9.467-12.672-13.031 5.184,9.648 8.352,17.676 9.504,24.66 1.152,6.84 2.808,10.691-2.808,16.561-5.903,5.795-16.199,11.844-31.715,18.288z" fill="#ad4200" fill-rule="evenodd" stroke="#000" stroke-miterlimit="10" stroke-width=".036"/>
 <path d="m89.406,259.578c-2.448-.359-5.616-2.592-9.504-6.697-4.032-4.176-8.604-10.078-14.112-18-.216,1.838-1.728,3.422-4.932,4.609-3.204,1.115-7.848,1.98-14.076,2.447-1.224,4.717-1.512,9.252-.72,13.752 .756,4.537 1.548,9.756 5.292,13.033 3.672,3.096 9.144,4.932 16.56,5.65-5.508-7.451-7.74-11.375-6.696-11.627 1.008-.289 5.184,2.951 12.672,9.863 2.808-.504 5.112-1.26 7.056-2.123 1.872-.9 3.24-1.908 4.248-3.168-4.896-5.041-6.948-7.596-6.012-8.1 .864-.469 4.572,1.295 11.268,5.291-.324-1.617-.683-3.274-1.044-4.93z" fill="#ede9b0" fill-rule="evenodd" stroke="#000" stroke-miterlimit="10" stroke-width=".036"/>
 <path d="m61.938,225.377c.684-3.203 1.62-5.65 2.808-7.738s2.556-3.564 4.248-4.572l-5.652-4.572c-3.888,4.463-7.056,8.387-9.504,12.313-2.484,3.814-4.248,7.344-5.292,10.584-1.116,3.096-1.368,5.795-1.044,8.1 4.788-.648 8.712-1.656 11.628-3.168 2.952-1.584 4.896-3.492 5.976-6.012l-3.168-4.935z" fill="#ad4200" fill-rule="evenodd" stroke="#000" stroke-miterlimit="10" stroke-width=".036"/>
 <path d="m202.842,128.502c4.033,1.944 10.117,3.708 18.686,5.292 8.494,1.476 21.814,1.8 32.039,3.888 10.188,1.908 25.02,5.256 28.549,8.1 3.311,2.809.539,5.689-8.461,8.785 2.484,1.656 3.313,3.023 2.484,4.248-.828,1.115-3.348,2.051-7.416,2.807 1.332,2.988 1.08,4.752-.359,5.293-1.656.504-6.48-.072-8.785-2.125-2.305-2.195-3.744-5.58-4.607-10.547-5.939-4.213-13.824-7.02-23.939-8.82-10.225-1.801-22.248-2.34-36.648-1.764 2.804-5.041 5.613-10.081 8.457-15.157z" fill-rule="evenodd" stroke="#000" stroke-miterlimit="10" stroke-width=".036"/>
 <path d="m198.27,129.906c5.365,1.512 10.873,2.88 16.92,4.248 5.977,1.368 11.988,2.844 19.01,3.888 6.947.936 14.363,1.512 22.535,1.728-1.691.611-3.023,1.621-3.852,3.168-.936,1.549-1.369,3.457-1.441,6.012-6.875-3.383-15.154-5.688-24.982-7.055-9.938-1.332-21.025-1.729-33.84-1.045-2.557-.791-3.42-2.088-2.449-3.888 1.007-1.872 3.528-4.176 8.099-7.056z" fill="#ad4200" fill-rule="evenodd"/>
 <path d="m258.498,140.563c4.68.576 8.855,1.402 12.672,2.627 3.781,1.188 8.893,2.953 9.793,4.465 .719,1.439-3.529,2.879-5.113,3.887-1.654.828-3.131,1.332-4.57,1.369l-3.781-2.629c1.477,1.729 2.701,3.205 3.672,4.572 .9,1.369 2.34,2.34 1.945,3.313-.576.863-2.125,1.547-4.934,2.053l-3.311-4.357c1.512,2.701 2.482,4.789 2.627,6.408 .107,1.549-.648,2.664-1.584,2.953-1.08.215-2.412.252-3.996-1.693-1.619-2.088-3.24-5.508-5.256-10.404l-3.779-2.844c-.396-2.807-.18-4.967.791-6.623 .9-1.695 2.556-2.631 4.824-3.097z" fill="#ede9b0" fill-rule="evenodd" stroke="#000" stroke-miterlimit="10" stroke-width=".036"/>
 <path d="m239.49,99.198c-5.76,8.316-9.791,14.472-12.492,19.044-2.699,4.5-3.852,6.984-3.455,7.74-6.66-6.84-13.105-12.888-19.477-18.828-6.48-5.94-12.527-11.232-18.684-16.272 3.42-6.516 7.092-14.904 11.303-25.308 4.068-10.656 7.346-27.18 13.572-37.08 6.301-9.936 14.652-17.46 23.797-21.456 9-3.888 22.68-4.392 30.348-2.088 7.561,2.088 11.447,11.196 15.012,15.12 3.385,4.032 2.592,6.696 5.797,8.388 3.24,1.404 8.891,1.08 13.463.576 4.5-.576 9.793-3.672 13.248-3.456 3.42.216 6.012,1.512 6.949,4.716 .719,3.24-2.412,9.54-2.197,14.328 .217,4.644 4.609,8.676 3.313,13.464-1.439,4.644-4.824,10.404-11.664,14.652-6.984,4.176-20.34,9.108-29.809,10.368-9.576,1.008-20.52-6.372-27-3.672-6.551,2.736-10.512,9.144-12.024,19.764z" fill-rule="evenodd" stroke="#000" stroke-miterlimit="10" stroke-width=".036"/>
 <path d="m185.059,93.834c2.664-3.024 5.363-7.776 8.389-14.544 2.951-6.948 6.047-17.352 9.287-25.92 2.951-8.532 5.004-18.036 9.072-24.768 4.141-6.696 10.26-11.844 15.443-15.444 4.896-3.852 9.396-5.904 14.617-6.984 5.256-1.044 12.023-2.52 16.848.864 4.572,3.384 8.027,14.148 11.34,18.972 3.455,4.716 8.244,4.5 8.82,9.072 .395,4.464-2.018,12.924-6.408,17.316-4.5,4.248-14.76,4.968-20.232,8.28-5.58,3.348-8.461,10.476-12.961,11.376-4.68.72-10.043-10.224-14.291-6.876-4.248,3.312-6.805,19.476-10.729,26.568-3.959,6.948-8.279,11.916-12.959,15.048-5.4-4.32-10.801-8.64-16.236-12.96z" fill="#ad4200" fill-rule="evenodd"/>
 <path d="m201.654,107.91c3.061-1.764 5.725-4.104 8.389-7.164 2.52-3.132 4.859-6.228 7.164-11.232 2.34-5.256 4.535-15.516 6.443-19.26 1.764-3.816 1.943-3.168 3.852-2.772 1.729.396 4.428,4.392 6.84,5.328 2.27.864 4.248,1.8 7.201.036 2.988-1.944 6.443-8.316 10.512-10.8 3.959-2.448 8.928-2.628 12.959-3.996 3.889-1.548 7.598-2.124 10.297-4.932 2.664-2.916 4.428-8.424 5.291-12.096 .721-3.78.434-7.488-.863-10.152-1.549-2.7-4.141-1.44-7.488-5.796-3.383-4.464-7.309-11.196-12.203-20.592 3.348.648 6.48,2.52 9.828,5.616 3.275,3.132 7.127,9.504 9.611,12.852 2.268,3.204 2.268,4.932 4.465,6.3 2.123,1.26 5.146,1.26 8.387,1.368 3.24,0 6.732-.324 10.873-1.116-1.441,3.744-1.729,6.624-.865,9.072 .9,2.268 3.781,3.996 6.012,5.04 2.125,1.044 4.285,1.476 6.625,1.296 3.023,3.24 4.5,6.552 4.283,9.792-.287,3.24-2.592,6.732-5.65,9.648-3.168,2.772-9.072,6.12-12.854,7.272-3.887,1.08-7.811-1.512-9.971-.54-2.16.864-.434,4.824-3.133,5.904-2.916.972-10.547-.108-13.752.252-3.24.36-1.801,1.548-5.4,1.62-3.887-.036-12.023-3.204-16.631-2.016-4.465,1.116-7.848,4.392-10.297,8.424-2.557,3.888-4.176,8.676-4.859,14.76-2.088,2.592-3.961,5.112-5.76,7.704-1.873,2.556-3.42,4.932-5.041,7.416l-24.265-7.236z" fill="#ede9b0" fill-rule="evenodd"/>
 <path d="m265.086,24.066c-1.404-1.224-3.383-2.196-6.084-2.916-2.879-.864-6.551-1.8-10.188-1.692-3.744.072-10.297,1.8-11.447,2.412-1.152.648.504.9 4.822,1.152-.971,4.752-.684,8.46.865,11.52 1.547,2.988 5.363,6.48 8.387,6.444 2.881-.18 7.273-4.824 9.145-7.272 1.836-2.556 2.412-5.184 1.873-7.884 1.584.108 2.555-.036 3.059-.288 .433-.288.289-.828-.432-1.476z" fill-rule="evenodd" stroke="#000" stroke-miterlimit="10" stroke-width=".036"/>
 <path d="m260.441,25.398-3.672-1.188c.037,1.368-.252,2.484-1.008,3.492-.863.9-2.303,2.376-3.492,2.484-1.295.036-2.844-.792-3.814-1.944-.973-1.296-1.801-2.916-2.197-5.256l-2.664.216c-.035,3.276.396,5.94 1.297,8.136 .828,2.124 1.836,3.96 3.852,4.824 1.908.756 5.688.72 7.74-.252 1.98-1.26 3.275-4.464 4.031-6.264 .648-1.8.576-3.168-.073-4.248z" fill="#fff" fill-rule="evenodd" stroke="#000" stroke-miterlimit="10" stroke-width=".036"/>
 <path d="m312.857,31.446c.289.72.252,4.284-.539,5.148-.936.828-4.5.108-4.717-.216-.287-.504 3.025-1.548 3.529-2.304 .395-.828-.793-1.656-.504-2.052 .181-.54 1.944-1.332 2.231-.576z" fill="#fff" fill-rule="evenodd" stroke="#000" stroke-miterlimit="10" stroke-width=".036"/>
 <path d="m281.898,23.526c.324-1.296.072-2.556-.611-3.78-.828-1.26-1.873-2.484-3.672-3.672 1.402-1.476 1.906-2.34 1.512-2.592-.469-.324-1.836.072-4.105,1.044 .973,1.728 1.873,3.132 3.098,4.752 1.114,1.512 2.374,2.88 3.778,4.248z" fill-rule="evenodd" stroke="#000" stroke-miterlimit="10" stroke-width=".036"/>
 <path d="m222.391,128.394-13.068-12.78-13.211.108c.756,4.104 1.654,7.056 2.844,9.252 1.15,2.088 2.123,3.132 4.031,3.42 1.764.252 4.969-2.052 6.84-1.908 1.764-.036 2.52,1.404 4.213,2.232 1.656.756 4.211,2.808 5.723,2.808 1.403-.108 2.231-1.152 2.628-3.132z" fill-rule="evenodd" stroke="#000" stroke-miterlimit="10" stroke-width=".036"/>
 <path d="m228.834,110.61c-1.008.972-1.799,2.304-2.771,4.392-.936,1.944-1.764,5.112-2.771,7.704-1.117,2.556-1.729,7.164-3.637,7.596-2.088.252-5.363-4.968-8.172-5.544-2.881-.576-6.48,3.348-8.461,2.196-2.016-1.296-3.131-4.464-3.348-9.648 2.664.72 5.041.828 7.273.324 2.195-.648 4.283-2.196 5.832-3.672 1.402-1.512 2.375-3.168 2.771-5.112 4.429.576 8.856,1.152 13.284,1.764z" fill="#ede9b0" fill-rule="evenodd"/>
 <path d="m241.902,93.654c.217,1.188 0,2.808-.791,4.716-.793,1.98-2.053,4.068-3.781,6.804-2.771.216-6.695-.036-12.455-.9-5.797-.936-13.717-2.052-21.529-4.32-7.811-2.34-16.164-5.58-25.199-9.72l1.332-12.456c-.432,0 2.627,1.008 9.324,3.024 6.623,1.944 21.492,6.588 30.42,8.784 8.82,2.088 16.379,3.492 22.679,4.068z" fill-rule="evenodd" stroke="#000" stroke-miterlimit="10" stroke-width=".036"/>
 <path d="m240.463,94.554c-.145,1.476-.541,3.06-1.189,4.608-.719,1.512-1.584,3.132-2.734,4.716-7.598-.648-14.545-1.656-20.988-2.88-6.588-1.188-11.52-2.771-17.568-4.608-6.119-2.088-12.096-4.392-18.504-7.344l1.043-9.684c5.762,2.088 12.492,4.356 20.736,6.66 8.209,2.232 21.313,5.616 28.045,7.092 6.55,1.44 10.223,1.872 11.159,1.44z" fill="#f00" fill-rule="evenodd" stroke="#000" stroke-miterlimit="10" stroke-width=".036"/>
 <path d="m222.391,37.818c-2.268,0-3.457,2.304-4.104,7.056-.613,4.716-.217,14.184.611,21.06 .791,6.732 4.068,12.6 3.852,19.404-.396,6.768-3.383,15.48-5.615,20.88-2.34,5.292-2.305,9.432-7.813,10.764-5.615,1.152-20.557-.036-25.236-3.564-4.645-3.78-1.908-10.836-2.484-18.252-.791-7.524-1.15-19.044-1.619-25.956-.648-6.948-3.6-9.684-1.225-15.156 2.449-5.616 9.576-13.464 15.697-17.424 5.939-3.888 12.563-5.904 20.016-5.904 1.115-.144 2.412.324 3.744,1.548 1.26,1.188 2.699,2.988 4.176,5.544z" fill-rule="evenodd" stroke="#000" stroke-miterlimit="10" stroke-width=".036"/>
 <path d="m222.787,35.442c-2.053.648-3.564,1.8-4.682,3.456-1.043,1.584-1.727,2.34-1.906,6.3-.361,3.924-.938,11.628-.217,17.136 .611,5.436 3.096,10.692 3.959,15.084 .721,4.248 1.117,5.976.648,10.188-.611,4.14-2.232,10.008-3.744,14.4-1.547,4.248-2.268,8.532-5.076,10.908-2.916,2.16-7.955,2.376-12.059,2.304-4.213-.18-10.117-1.152-12.709-3.06-2.664-2.016-2.627-4.356-3.096-8.424-.539-4.212-.287-10.548-.217-16.092-.07-5.58.182-12.276-.359-17.028-.648-4.788-3.527-8.028-3.383-11.52 .107-3.528.863-6.084 4.066-9.756 3.025-3.852 8.748-9.792 14.689-12.816 5.975-3.06 12.707-4.608 20.771-5.04 1.083,1.296 2.198,2.628 3.315,3.96z" fill="#ad4200" fill-rule="evenodd"/>
 <path d="m150.462,85.194 1.44-2.808c1.296,1.26 2.916,1.908 4.716,2.088 1.836.072 3.852-.36 6.192-1.296 1.188,3.564 3.096,5.616 5.725,6.588 2.664.864 5.902.36 10.008-1.368l.791-7.704c-1.008-1.836-2.232-3.024-3.816-3.996-1.727-1.044-3.6-1.764-5.615-1.584-2.053.108-4.176,1.08-6.371,2.628-.289-2.664-1.262-4.068-2.917-4.212-1.728-.144-4.14.864-7.236,3.168l.144-3.816c-11.88-3.312-26.748-5.904-45.432-7.776-18.792-1.944-47.988-3.06-66.06-3.492-18.036-.54-31.752-.396-41.58.432l-.432,10.944c28.26-.9 54.252-.324 79.632,1.728 25.271,2.016 48.419,5.508 70.811,10.476z" fill-rule="evenodd" stroke="#000" stroke-miterlimit="10" stroke-width=".036"/>
 <path d="m.342,63.954 .252,6.984c15.084-.648 29.52-.792 43.884-.432 14.328.324 28.008,1.188 41.58,2.448 13.536,1.188 28.008,2.916 38.7,4.644 10.548,1.656 18.396,3.24 24.12,5.04 .828-1.044 1.368-2.088 1.908-3.528 .468-1.44.792-2.988.972-4.788-5.94-1.944-15.12-3.708-27.684-5.292-12.744-1.8-30.312-3.312-47.556-4.392-17.352-1.116-42.048-1.332-54.936-1.476-12.78-.18-19.728.18-21.24.792z" fill="#f00" fill-rule="evenodd" stroke="#000" stroke-miterlimit="10" stroke-width=".036"/>
 <path d="m169.326,79.65c-1.439.54-2.771,2.556-2.592,3.96 .145,1.296 1.836,3.168 3.42,3.672 1.512.288 4.859-.396 5.725-1.512 .684-1.296 0-4.356-1.08-5.436-1.153-1.044-4.141-1.224-5.473-.684z" fill="#808080" fill-rule="evenodd" stroke="#000" stroke-miterlimit="10" stroke-width=".036"/>
 <path d="m156.51,77.454c-.864.36-1.26,2.016-.792,2.736 .36.72 2.556,1.692 3.384,1.368 .756-.468 1.764-3.312 1.368-3.96-.54-.648-3.203-.648-3.96-.144z" fill="#808080" fill-rule="evenodd" stroke="#000" stroke-miterlimit="10" stroke-width=".036"/>
 <path d="m240.031.018c-7.598-.036-13.969,1.512-19.117,4.788-5.256,3.276-9.107,8.136-11.951,14.724-1.512-6.588.395-11.448 5.58-14.724 5.219-3.276 13.572-4.824 25.488-4.788z" fill-rule="evenodd" stroke="#000" stroke-miterlimit="10" stroke-width=".036"/>
 <path d="m216.127.414c-2.232-.432-4.32.144-5.977,2.016-1.691,1.764-3.24,4.68-4.355,8.748-1.764-3.78-1.764-6.624 0-8.388 1.764-1.836 5.076-2.628 10.332-2.376z" fill-rule="evenodd" stroke="#000" stroke-miterlimit="10" stroke-width=".036"/>
 <path d="m27.306 153.77c4.644 4.248 9.036 7.705 13.176 10.369 4.14 2.699 7.884 4.463 11.52 5.58-6.876-0.576-12.132-2.125-16.308-4.789-4.104-2.699-6.947-6.37-8.388-11.16z" fill-rule="evenodd" stroke="#000" stroke-miterlimit="10" stroke-width=".036"/>
 <path d="m26.911,164.143c1.62,2.627 3.744,4.752 6.372,6.371 2.556,1.656 5.616,2.592 9.18,3.205-5.22.18-8.928-.396-11.556-2.018-2.593-1.619-3.925-4.138-3.996-7.558z" fill-rule="evenodd" stroke="#000" stroke-miterlimit="10" stroke-width=".036"/>
 <path d="m154.78 103.19c-1.944 3.492-4.464 7.344-7.56 11.556-3.132 4.176-6.804 8.64-11.16 13.536 1.188-4.68 3.132-8.928 6.372-13.14 3.132-4.284 7.2-8.136 12.348-11.952z" fill-rule="evenodd" stroke="#000" stroke-miterlimit="10" stroke-width=".036"/>
 <path d="m147.22 103.19c-2.628 2.34-5.544 4.5-8.748 6.768-3.348 2.16-6.804 4.284-10.764 6.372 2.088-3.348 4.644-6.228 7.956-8.352 3.24-2.16 7.092-3.852 11.556-4.788z" fill-rule="evenodd" stroke="#000" stroke-miterlimit="10" stroke-width=".036"/>
 <path d="m44.838 74.898c17.316 1.368 30.996 2.916 41.436 4.788 10.404 1.836 17.172 3.96 20.7 6.372-18-2.664-31.752-4.968-42.228-6.768-10.475-1.872-16.92-3.384-19.908-4.392z" fill-rule="evenodd" stroke="#000" stroke-miterlimit="10" stroke-width=".036"/>
 <path d="m54.415,79.686 25.884,7.164c-7.956-.72-13.968-1.548-18.324-2.772-4.321-1.26-6.841-2.628-7.56-4.392z" fill-rule="evenodd" stroke="#000" stroke-miterlimit="10" stroke-width=".036"/>
 <path d="m237.258,151.002 14.725,6.371c-5.328-.611-9.18-1.402-11.557-1.979-2.447-.756-2.303-1.297-2.771-2.018-.54-.755-.721-1.546-.397-2.374z" fill-rule="evenodd" stroke="#000" stroke-miterlimit="10" stroke-width=".036"/>
 <path d="m236.07,156.186 13.932,5.977c-3.779.432-6.875.215-9.145-.793-2.375-1.116-3.923-2.665-4.787-5.184z" fill-rule="evenodd" stroke="#000" stroke-miterlimit="10" stroke-width=".036"/>
 <path d="m32.094,145.422c-5.436-3.348-8.892-5.868-10.368-7.56-1.512-1.872-1.152-3.636 1.224-2.808 2.268.9 6.336,3.42 12.348,7.991-1.044.793-2.124,1.584-3.204,2.377z" fill="#ede9b0" fill-rule="evenodd" stroke="#000" stroke-miterlimit="10" stroke-width=".036"/>
</svg>
